<svg version="1.1" id="Layer_1" xmlns="http://www.w3.org/2000/svg" xmlns:xlink="http://www.w3.org/1999/xlink" x="0px" y="0px"
	 width="100%" viewBox="0 0 1200 1200" enable-background="new 0 0 1200 1200" xml:space="preserve">
<path fill="#000000" opacity="1.000000" stroke="none" 
	d="
M795.000000,1201.000000 
	C530.000000,1201.000000 265.500000,1201.000000 1.000000,1201.000000 
	C1.000000,801.000000 1.000000,401.000000 1.000000,1.000000 
	C401.000000,1.000000 801.000000,1.000000 1201.000000,1.000000 
	C1201.000000,401.000000 1201.000000,801.000000 1201.000000,1201.000000 
	C1065.833374,1201.000000 930.666687,1201.000000 795.000000,1201.000000 
M791.995239,590.732544 
	C791.719421,590.872375 791.626404,591.090210 791.082458,591.591248 
	C790.269165,592.595215 789.455811,593.599243 788.691711,594.683716 
	C788.691711,594.683716 788.612122,594.632385 787.948669,594.706543 
	C787.091492,595.708191 786.234314,596.709778 784.989197,597.714233 
	C784.715759,597.859192 784.623413,598.079956 784.078430,598.588562 
	C783.266418,599.594177 782.454468,600.599854 781.692566,601.686707 
	C781.692566,601.686707 781.612183,601.634338 780.949036,601.711365 
	C780.093689,602.712524 779.238342,603.713684 777.994141,604.721436 
	C777.721375,604.866821 777.627502,605.088135 777.088806,605.616394 
	C776.274719,606.614136 775.460632,607.611877 774.695312,608.690491 
	C774.695312,608.690491 774.615173,608.639526 773.957886,608.738342 
	C773.099243,609.730164 772.240601,610.721985 770.992615,611.718811 
	C770.718933,611.864441 770.625427,612.086060 770.088013,612.617981 
	C769.272705,613.613892 768.457397,614.609863 767.690613,615.686096 
	C767.690613,615.686096 767.611145,615.635498 766.950439,615.726440 
	C766.094727,616.722839 765.238953,617.719177 763.999573,618.715027 
	C763.727051,618.860901 763.640686,619.080200 763.092957,619.622009 
	C762.531982,620.336121 761.971069,621.050293 761.081848,621.771667 
	C761.081848,621.771667 761.014771,622.093018 760.352051,622.201721 
	C758.362244,624.376282 756.372375,626.550781 754.001343,628.728760 
	C753.733093,628.871155 753.642029,629.087952 753.056213,629.598083 
	C747.737549,632.412537 749.439026,627.834595 749.431824,625.877075 
	C749.320862,595.877869 749.230530,565.877380 749.475281,535.879944 
	C749.499207,532.949890 751.003357,529.244934 753.100891,527.237793 
	C780.842468,500.692169 806.095642,471.642548 835.529114,446.759216 
	C850.598389,434.019592 863.849182,419.141174 878.123779,405.439850 
	C881.386230,402.308350 881.100281,400.507935 878.032166,397.444122 
	C787.342773,306.881775 696.743408,216.229172 606.126221,125.594521 
	C600.733948,120.201241 600.272339,120.198799 594.952698,125.517792 
	C488.415710,232.042358 381.880615,338.568787 275.348328,445.098083 
	C225.261673,495.183380 175.198837,545.292480 125.048904,595.314331 
	C122.507660,597.849060 122.022888,599.310303 124.848061,602.108093 
	C148.413834,625.445496 171.817657,648.946411 195.269562,672.398804 
	C328.674713,805.806885 462.079315,939.215515 595.486023,1072.622070 
	C599.865662,1077.001587 603.442627,1076.978394 607.813232,1072.663208 
	C612.304504,1068.228760 617.015930,1064.005737 621.340881,1059.416626 
	C651.015015,1027.930054 684.031738,999.703430 711.925964,966.466614 
	C714.809082,963.031189 719.412781,961.087830 722.566833,957.822937 
	C732.429504,947.613831 741.891174,937.018005 751.713989,926.769226 
	C754.167786,924.209106 757.404358,922.402527 760.265320,920.228760 
	C767.575623,914.674561 771.449158,906.201538 779.323486,900.515442 
	C789.677368,893.038940 797.328430,881.836060 806.232666,872.320679 
	C807.902710,870.536011 810.009521,869.162720 811.895996,867.577332 
	C814.139404,865.692139 816.606323,863.999634 818.534607,861.830872 
	C821.141052,858.899658 823.005188,855.268066 825.777649,852.535278 
	C829.023193,849.336060 833.285950,847.151123 836.447266,843.886841 
	C864.111511,815.321960 893.940796,788.912903 919.918335,758.633728 
	C929.664124,747.274048 942.108704,738.268372 952.873596,727.730469 
	C959.798401,720.951721 965.765686,713.204834 972.448059,706.163147 
	C975.001770,703.472168 978.693909,701.863342 981.256470,699.178467 
	C984.749756,695.518555 987.308228,690.944153 990.905334,687.411194 
	C995.584961,682.814941 1001.273682,679.229370 1005.842407,674.540649 
	C1014.015808,666.152710 1021.293091,656.875061 1029.636230,648.672424 
	C1044.403442,634.153687 1059.772705,620.249207 1074.714722,605.905090 
	C1080.525635,600.326599 1080.330444,599.782959 1074.552124,594.002930 
	C1029.187134,548.624023 983.813354,503.253723 938.436035,457.887115 
	C933.143555,452.595917 932.381714,452.584686 927.178528,457.785492 
	C892.169006,492.778931 857.211121,527.824341 822.122070,562.737854 
	C816.886475,567.947266 811.050110,572.552917 804.922424,577.717407 
	C803.983154,578.816162 803.043884,579.914917 801.779602,581.101562 
	C801.779602,581.101562 801.776184,581.438293 801.137878,581.688721 
	C800.564392,582.381531 799.990845,583.074402 799.085510,583.770508 
	C799.085510,583.770508 799.012085,584.094116 798.381042,584.209412 
	C797.294067,585.478088 796.207092,586.746826 794.792358,588.105042 
	C794.792358,588.105042 794.783081,588.444702 794.133972,588.677612 
	C793.549500,589.367249 792.965027,590.056885 791.995239,590.732544 
z"/>
<path fill="#0F91E2" opacity="1.000000" stroke="none" 
	d="
M754.382507,628.725220 
	C756.372375,626.550781 758.362244,624.376282 760.710571,622.477905 
	C761.553650,623.557556 762.038208,624.360901 762.522766,625.164307 
	C763.014343,624.108704 763.505981,623.053162 764.335632,621.961670 
	C765.247986,621.460876 765.822205,620.996033 766.396484,620.531128 
	C765.725403,619.925903 765.054260,619.320740 764.383179,618.715515 
	C765.238953,617.719177 766.094727,616.722839 767.384888,616.006042 
	C768.414001,616.904114 769.008606,617.522583 769.603210,618.141113 
	C769.796021,617.899841 769.988770,617.658569 770.181519,617.417297 
	C769.335022,616.813477 768.488586,616.209656 767.642090,615.605835 
	C768.457397,614.609863 769.272705,613.613892 770.538574,612.817017 
	C771.593262,613.457153 772.191895,613.907043 772.822388,614.306396 
	C772.846863,614.321716 773.373291,613.669983 773.339233,613.633545 
	C772.716675,612.965820 772.044006,612.344788 771.381958,611.713745 
	C772.240601,610.721985 773.099243,609.730164 774.396362,609.035034 
	C775.454224,610.057556 776.073486,610.783386 776.692810,611.509277 
	C777.028259,611.092163 777.363770,610.674988 777.699280,610.257812 
	C776.681641,609.708374 775.664062,609.158936 774.646484,608.609558 
	C775.460632,607.611877 776.274719,606.614136 777.539307,605.816895 
	C778.593933,606.458557 779.192505,606.908447 779.822998,607.307983 
	C779.847046,607.323242 780.373352,606.671570 780.339233,606.634888 
	C779.716980,605.967041 779.044678,605.345886 778.382935,604.714844 
	C779.238342,603.713684 780.093689,602.712524 781.390503,602.019165 
	C782.450378,603.054077 783.068848,603.781250 783.687256,604.508362 
	C784.023315,604.092224 784.359436,603.676147 784.695557,603.260010 
	C783.677856,602.708496 782.660156,602.156982 781.642456,601.605469 
	C782.454468,600.599854 783.266418,599.594177 784.531982,598.800171 
	C785.588196,599.455444 786.185425,599.907837 786.814758,600.309875 
	C786.838806,600.325256 787.367493,599.674561 787.333801,599.638245 
	C786.711365,598.968262 786.039001,598.344727 785.377136,597.711426 
	C786.234314,596.709778 787.091492,595.708191 788.383240,594.995422 
	C789.410339,595.904907 790.002869,596.525452 790.595398,597.145996 
	C790.788879,596.905396 790.982300,596.664734 791.175781,596.424133 
	C790.331360,595.817139 789.486938,595.210144 788.642517,594.603210 
	C789.455811,593.599243 790.269165,592.595215 791.536926,591.810059 
	C792.573120,592.476624 793.154846,592.924316 793.736572,593.372070 
	C794.156921,592.580566 794.577209,591.789062 795.348572,590.974243 
	C796.797791,589.965088 797.896057,588.979309 799.327698,587.903809 
	C800.439148,586.541138 801.217163,585.268127 802.347046,583.973877 
	C803.801025,582.966675 804.903198,581.980652 806.002686,580.997314 
	C806.000000,581.000000 805.994568,581.005493 806.351318,580.989502 
	C807.606140,580.473206 808.504150,579.972839 809.402161,579.472534 
	C808.329041,579.042908 807.255859,578.613403 806.010498,577.996948 
	C805.722656,577.685974 805.607178,577.561951 805.491638,577.437866 
	C811.050110,572.552917 816.886475,567.947266 822.122070,562.737854 
	C857.211121,527.824341 892.169006,492.778931 927.178528,457.785492 
	C932.381714,452.584686 933.143555,452.595917 938.436035,457.887115 
	C983.813354,503.253723 1029.187134,548.624023 1074.552124,594.002930 
	C1080.330444,599.782959 1080.525635,600.326599 1074.714722,605.905090 
	C1059.772705,620.249207 1044.403442,634.153687 1029.636230,648.672424 
	C1021.293091,656.875061 1014.015808,666.152710 1005.842407,674.540649 
	C1001.273682,679.229370 995.584961,682.814941 990.905334,687.411194 
	C987.308228,690.944153 984.749756,695.518555 981.256470,699.178467 
	C978.693909,701.863342 975.001770,703.472168 972.448059,706.163147 
	C965.765686,713.204834 959.798401,720.951721 952.873596,727.730469 
	C942.108704,738.268372 929.664124,747.274048 919.918335,758.633728 
	C893.940796,788.912903 864.111511,815.321960 836.447266,843.886841 
	C833.285950,847.151123 829.023193,849.336060 825.777649,852.535278 
	C823.005188,855.268066 821.141052,858.899658 818.534607,861.830872 
	C816.606323,863.999634 814.139404,865.692139 811.895996,867.577332 
	C810.009521,869.162720 807.902710,870.536011 806.232666,872.320679 
	C797.328430,881.836060 789.677368,893.038940 779.323486,900.515442 
	C771.449158,906.201538 767.575623,914.674561 760.265320,920.228760 
	C757.404358,922.402527 754.167786,924.209106 751.713989,926.769226 
	C741.891174,937.018005 732.429504,947.613831 722.566833,957.822937 
	C719.412781,961.087830 714.809082,963.031189 711.925964,966.466614 
	C684.031738,999.703430 651.015015,1027.930054 621.340881,1059.416626 
	C617.015930,1064.005737 612.304504,1068.228760 607.813232,1072.663208 
	C603.442627,1076.978394 599.865662,1077.001587 595.486023,1072.622070 
	C462.079315,939.215515 328.674713,805.806885 195.269562,672.398804 
	C171.817657,648.946411 148.413834,625.445496 124.848061,602.108093 
	C122.022888,599.310303 122.507660,597.849060 125.048904,595.314331 
	C175.198837,545.292480 225.261673,495.183380 275.348328,445.098083 
	C381.880615,338.568787 488.415710,232.042358 594.952698,125.517792 
	C600.272339,120.198799 600.733948,120.201241 606.126221,125.594521 
	C696.743408,216.229172 787.342773,306.881775 878.032166,397.444122 
	C881.100281,400.507935 881.386230,402.308350 878.123779,405.439850 
	C863.849182,419.141174 850.598389,434.019592 835.529114,446.759216 
	C806.095642,471.642548 780.842468,500.692169 753.100891,527.237793 
	C751.003357,529.244934 749.499207,532.949890 749.475281,535.879944 
	C749.230530,565.877380 749.320862,595.877869 749.431824,625.877075 
	C749.439026,627.834595 747.737549,632.412537 753.482422,629.853882 
	C754.537476,630.830872 755.166199,631.552124 755.794922,632.273376 
	C756.196655,631.182251 756.598328,630.091125 757.313477,628.971313 
	C758.299683,628.427490 758.972595,627.912354 759.645447,627.397278 
	C759.316467,627.099854 758.987427,626.802490 758.658447,626.505127 
	C758.105652,627.336731 757.552795,628.168396 756.561890,628.972778 
	C755.543335,628.872192 754.962952,628.798706 754.382507,628.725220 
M517.304504,598.349609 
	C516.876221,600.045715 516.077942,601.741028 516.074341,603.438049 
	C516.000671,638.084045 516.012390,672.730286 516.035278,707.376465 
	C516.036255,708.854980 516.307678,710.333374 516.453125,711.811829 
	C516.971191,711.763733 517.489258,711.715576 518.007324,711.667480 
	C518.007324,673.780762 518.007324,635.894043 518.425842,597.886658 
	C518.640625,597.570862 518.855347,597.255066 519.070068,596.939270 
	C518.936951,596.911987 518.715210,596.823242 518.684692,596.867249 
	C518.433899,597.228088 518.218689,597.613586 517.304504,598.349609 
M830.266602,749.400330 
	C833.042358,747.116089 830.376953,745.895813 829.162903,744.707825 
	C822.149048,737.844116 815.172729,730.930176 807.904358,724.341492 
	C799.964783,717.144348 793.235901,708.866272 783.888916,702.865906 
	C773.704285,696.328003 765.190186,687.181152 755.977234,679.137939 
	C745.391663,669.896362 736.966187,658.476624 724.702698,650.789978 
	C716.000488,645.335510 708.890869,637.334839 701.091187,630.447144 
	C690.688049,621.260254 680.417358,611.919678 669.885803,602.882812 
	C655.686157,590.698364 644.015869,575.835266 628.381714,565.087036 
	C619.733154,559.141296 612.386475,551.290100 604.515503,544.228088 
	C592.824951,533.739075 581.116638,523.267883 569.549194,512.644043 
	C554.167725,498.517212 539.010071,484.145782 523.571167,470.082672 
	C513.786377,461.169800 503.580292,452.721222 493.714020,443.895721 
	C478.911224,430.654480 464.283203,417.217926 449.487518,403.968628 
	C445.262360,400.185120 440.714325,396.762115 435.136597,392.213257 
	C434.761597,395.755859 434.364960,397.758667 434.364136,399.761566 
	C434.330078,483.908997 434.339752,568.056458 434.324768,652.203857 
	C434.316986,695.859314 434.260956,739.514832 434.304688,783.170227 
	C434.306000,784.485901 435.180145,785.800659 435.647308,787.115845 
	C437.219574,786.496155 439.199615,786.288635 440.303986,785.195984 
	C463.497772,762.248779 486.543915,739.152100 509.764984,716.232727 
	C512.877991,713.160156 514.090820,709.993835 514.071960,705.661682 
	C513.920959,671.003662 513.937683,636.344604 514.049316,601.686401 
	C514.056274,599.517517 514.871826,597.045715 516.133423,595.313721 
	C516.776672,594.430725 519.937622,594.096130 520.789124,594.845215 
	C531.832092,604.560608 542.550110,614.645203 553.584717,624.370361 
	C562.999084,632.667664 572.816040,640.507080 582.274719,648.755615 
	C594.614624,659.516663 604.671692,672.598022 618.204529,682.287109 
	C629.044983,690.048584 638.472351,699.791809 648.474976,708.713623 
	C662.062683,720.832825 675.701172,732.898865 689.084656,745.240601 
	C692.126282,748.045471 695.022278,749.411926 699.196655,749.395935 
	C739.853394,749.240173 780.510803,749.258240 821.168030,749.276611 
	C823.452087,749.277649 825.735962,749.716248 827.343811,750.441345 
	C825.207642,750.643921 823.071533,751.021301 820.935242,751.023193 
	C780.275574,751.058228 739.615967,751.037476 698.956360,751.082825 
	C696.914246,751.085083 694.872742,751.580383 692.830933,751.846130 
	C692.887695,752.450684 692.944397,753.055237 693.001099,753.659790 
	C694.883362,753.770691 696.765564,753.977661 698.647888,753.978455 
	C740.807312,753.996887 782.966675,753.992920 825.126099,753.991272 
	C826.292419,753.991211 827.461182,754.015808 828.624695,753.952881 
	C832.417542,753.747559 831.852966,752.051514 830.266602,749.400330 
M432.010040,426.500000 
	C432.010040,416.091492 432.010040,405.682983 432.010040,395.274475 
	C431.557251,395.291718 431.104492,395.308960 430.651703,395.326202 
	C430.651703,525.445618 430.651703,655.565002 430.651703,785.684387 
	C431.104492,785.684143 431.557281,785.683838 432.010071,785.683594 
	C432.010071,666.289062 432.010071,546.894531 432.010040,426.500000 
M745.078552,628.420837 
	C749.050720,630.166199 746.880249,626.479553 746.882812,625.926575 
	C747.023682,595.279602 747.013672,564.632019 746.982056,533.984436 
	C746.980713,532.720886 746.627808,531.457703 746.438721,530.194336 
	C745.964600,530.251160 745.490540,530.307922 745.016479,530.364685 
	C745.016479,562.793335 745.016479,595.221924 745.078552,628.420837 
z"/>
<path fill="#109DF4" opacity="1.000000" stroke="none" 
	d="
M754.191895,628.726990 
	C754.962952,628.798706 755.543335,628.872192 756.561890,628.972778 
	C756.598328,630.091125 756.196655,631.182251 755.794922,632.273376 
	C755.166199,631.552124 754.537476,630.830872 753.818420,629.744446 
	C753.642029,629.087952 753.733093,628.871155 754.191895,628.726990 
z"/>
<path fill="#109DF4" opacity="1.000000" stroke="none" 
	d="
M801.995117,583.995117 
	C801.217163,585.268127 800.439148,586.541138 799.330688,587.907227 
	C799.000244,588.000244 799.006531,588.006531 799.003906,587.614868 
	C799.004883,586.180237 799.008484,585.137146 799.012085,584.094116 
	C799.012085,584.094116 799.085510,583.770508 799.680176,583.838501 
	C800.851135,583.938904 801.427490,583.971313 802.001892,584.001892 
	C802.000000,584.000000 801.995117,583.995117 801.995117,583.995117 
z"/>
<path fill="#109DF4" opacity="1.000000" stroke="none" 
	d="
M798.997253,587.996826 
	C797.896057,588.979309 796.797791,589.965088 795.349792,590.975464 
	C795.000000,591.000000 795.001953,591.001953 794.986694,590.574280 
	C794.908630,589.579285 794.845886,589.012024 794.783081,588.444702 
	C794.783081,588.444702 794.792358,588.105042 795.344360,588.076050 
	C796.933044,588.033569 797.969788,588.020020 799.006531,588.006531 
	C799.006531,588.006531 799.000244,588.000244 798.997253,587.996826 
z"/>
<path fill="#109DF4" opacity="1.000000" stroke="none" 
	d="
M806.005371,580.994690 
	C804.903198,581.980652 803.801025,582.966675 802.347046,583.973877 
	C801.995117,583.995117 802.000000,584.000000 801.986084,583.572754 
	C801.906799,582.576416 801.841492,582.007324 801.776184,581.438293 
	C801.776184,581.438293 801.779602,581.101562 802.331726,581.074890 
	C803.924377,581.030396 804.964844,581.012512 806.005371,580.994690 
z"/>
<path fill="#109DF4" opacity="1.000000" stroke="none" 
	d="
M763.997559,621.997559 
	C763.505981,623.053162 763.014343,624.108704 762.522766,625.164307 
	C762.038208,624.360901 761.553650,623.557556 761.041931,622.423584 
	C761.014771,622.093018 761.081848,621.771667 761.675537,621.836548 
	C762.846802,621.934937 763.424438,621.968506 764.001038,622.001099 
	C764.000000,622.000000 763.997559,621.997559 763.997559,621.997559 
z"/>
<path fill="#0F91E2" opacity="1.000000" stroke="none" 
	d="
M799.003906,587.614868 
	C797.969788,588.020020 796.933044,588.033569 795.508179,588.031311 
	C796.207092,586.746826 797.294067,585.478088 798.696533,584.151733 
	C799.008484,585.137146 799.004883,586.180237 799.003906,587.614868 
z"/>
<path fill="#0F91E2" opacity="1.000000" stroke="none" 
	d="
M806.002686,580.997314 
	C804.964844,581.012512 803.924377,581.030396 802.494263,581.030945 
	C803.043884,579.914917 803.983154,578.816162 805.207031,577.577637 
	C805.607178,577.561951 805.722656,577.685974 805.959961,578.344971 
	C806.052673,579.588440 806.023621,580.296936 805.994568,581.005493 
	C805.994568,581.005493 806.000000,581.000000 806.002686,580.997314 
z"/>
<path fill="#109DF4" opacity="1.000000" stroke="none" 
	d="
M764.191406,618.715271 
	C765.054260,619.320740 765.725403,619.925903 766.396484,620.531128 
	C765.822205,620.996033 765.247986,621.460876 764.335632,621.961670 
	C763.997559,621.997559 764.000000,622.000000 763.980103,621.560913 
	C763.886902,620.538818 763.813660,619.955811 763.740479,619.372803 
	C763.640686,619.080200 763.727051,618.860901 764.191406,618.715271 
z"/>
<path fill="#109DF4" opacity="1.000000" stroke="none" 
	d="
M771.187317,611.716309 
	C772.044006,612.344788 772.716675,612.965820 773.339233,613.633545 
	C773.373291,613.669983 772.846863,614.321716 772.822388,614.306396 
	C772.191895,613.907043 771.593262,613.457153 770.850708,612.699829 
	C770.625427,612.086060 770.718933,611.864441 771.187317,611.716309 
z"/>
<path fill="#109DF4" opacity="1.000000" stroke="none" 
	d="
M778.188538,604.718140 
	C779.044678,605.345886 779.716980,605.967041 780.339233,606.634888 
	C780.373352,606.671570 779.847046,607.323242 779.822998,607.307983 
	C779.192505,606.908447 778.593933,606.458557 777.851196,605.701294 
	C777.627502,605.088135 777.721375,604.866821 778.188538,604.718140 
z"/>
<path fill="#109DF4" opacity="1.000000" stroke="none" 
	d="
M785.183167,597.712830 
	C786.039001,598.344727 786.711365,598.968262 787.333801,599.638245 
	C787.367493,599.674561 786.838806,600.325256 786.814758,600.309875 
	C786.185425,599.907837 785.588196,599.455444 784.848755,598.694092 
	C784.623413,598.079956 784.715759,597.859192 785.183167,597.712830 
z"/>
<path fill="#109DF4" opacity="1.000000" stroke="none" 
	d="
M794.998779,590.998779 
	C794.577209,591.789062 794.156921,592.580566 793.736572,593.372070 
	C793.154846,592.924316 792.573120,592.476624 791.853882,591.707520 
	C791.626404,591.090210 791.719421,590.872375 792.622192,590.812927 
	C793.833435,590.929504 794.417664,590.965698 795.001953,591.001953 
	C795.001953,591.001953 795.000000,591.000000 794.998779,590.998779 
z"/>
<path fill="#0F91E2" opacity="1.000000" stroke="none" 
	d="
M801.457031,581.563477 
	C801.841492,582.007324 801.906799,582.576416 801.987915,583.574585 
	C801.427490,583.971313 800.851135,583.938904 799.846069,583.836792 
	C799.990845,583.074402 800.564392,582.381531 801.457031,581.563477 
z"/>
<path fill="#0F91E2" opacity="1.000000" stroke="none" 
	d="
M763.416748,619.497437 
	C763.813660,619.955811 763.886902,620.538818 763.981079,621.562012 
	C763.424438,621.968506 762.846802,621.934937 761.839600,621.832886 
	C761.971069,621.050293 762.531982,620.336121 763.416748,619.497437 
z"/>
<path fill="#0F91E2" opacity="1.000000" stroke="none" 
	d="
M794.986694,590.574280 
	C794.417664,590.965698 793.833435,590.929504 792.814819,590.819946 
	C792.965027,590.056885 793.549500,589.367249 794.458557,588.561157 
	C794.845886,589.012024 794.908630,589.579285 794.986694,590.574280 
z"/>
<path fill="#000203" opacity="1.000000" stroke="none" 
	d="
M828.019897,749.951233 
	C825.735962,749.716248 823.452087,749.277649 821.168030,749.276611 
	C780.510803,749.258240 739.853394,749.240173 699.196655,749.395935 
	C695.022278,749.411926 692.126282,748.045471 689.084656,745.240601 
	C675.701172,732.898865 662.062683,720.832825 648.474976,708.713623 
	C638.472351,699.791809 629.044983,690.048584 618.204529,682.287109 
	C604.671692,672.598022 594.614624,659.516663 582.274719,648.755615 
	C572.816040,640.507080 562.999084,632.667664 553.584717,624.370361 
	C542.550110,614.645203 531.832092,604.560608 520.789124,594.845215 
	C519.937622,594.096130 516.776672,594.430725 516.133423,595.313721 
	C514.871826,597.045715 514.056274,599.517517 514.049316,601.686401 
	C513.937683,636.344604 513.920959,671.003662 514.071960,705.661682 
	C514.090820,709.993835 512.877991,713.160156 509.764984,716.232727 
	C486.543915,739.152100 463.497772,762.248779 440.303986,785.195984 
	C439.199615,786.288635 437.219574,786.496155 435.647339,787.115845 
	C435.180145,785.800659 434.306000,784.485901 434.304688,783.170227 
	C434.260956,739.514832 434.316986,695.859314 434.324768,652.203857 
	C434.339752,568.056458 434.330078,483.908997 434.364136,399.761566 
	C434.364960,397.758667 434.761597,395.755859 435.136597,392.213257 
	C440.714325,396.762115 445.262360,400.185120 449.487518,403.968628 
	C464.283203,417.217926 478.911224,430.654480 493.714020,443.895721 
	C503.580292,452.721222 513.786377,461.169800 523.571167,470.082672 
	C539.010071,484.145782 554.167725,498.517212 569.549194,512.644043 
	C581.116638,523.267883 592.824951,533.739075 604.515503,544.228088 
	C612.386475,551.290100 619.733154,559.141296 628.381714,565.087036 
	C644.015869,575.835266 655.686157,590.698364 669.885803,602.882812 
	C680.417358,611.919678 690.688049,621.260254 701.091187,630.447144 
	C708.890869,637.334839 716.000488,645.335510 724.702698,650.789978 
	C736.966187,658.476624 745.391663,669.896362 755.977234,679.137939 
	C765.190186,687.181152 773.704285,696.328003 783.888916,702.865906 
	C793.235901,708.866272 799.964783,717.144348 807.904358,724.341492 
	C815.172729,730.930176 822.149048,737.844116 829.162903,744.707825 
	C830.376953,745.895813 833.042358,747.116089 829.801392,749.534424 
	C828.897400,749.762817 828.458679,749.856995 828.019897,749.951233 
z"/>
<path fill="#11A1FB" opacity="1.000000" stroke="none" 
	d="
M432.010071,427.000000 
	C432.010071,546.894531 432.010071,666.289062 432.010071,785.683594 
	C431.557281,785.683838 431.104492,785.684143 430.651703,785.684387 
	C430.651703,655.565002 430.651703,525.445618 430.651703,395.326202 
	C431.104492,395.308960 431.557251,395.291718 432.010040,395.274475 
	C432.010040,405.682983 432.010040,416.091492 432.010071,427.000000 
z"/>
<path fill="#109EF6" opacity="1.000000" stroke="none" 
	d="
M827.681885,750.196289 
	C828.458679,749.856995 828.897400,749.762817 829.654358,749.798828 
	C831.852966,752.051514 832.417542,753.747559 828.624695,753.952881 
	C827.461182,754.015808 826.292419,753.991211 825.126099,753.991272 
	C782.966675,753.992920 740.807312,753.996887 698.647888,753.978455 
	C696.765564,753.977661 694.883362,753.770691 693.001099,753.659790 
	C692.944397,753.055237 692.887695,752.450684 692.830933,751.846130 
	C694.872742,751.580383 696.914246,751.085083 698.956360,751.082825 
	C739.615967,751.037476 780.275574,751.058228 820.935242,751.023193 
	C823.071533,751.021301 825.207642,750.643921 827.681885,750.196289 
z"/>
<path fill="#11A1FA" opacity="1.000000" stroke="none" 
	d="
M518.007324,598.007324 
	C518.007324,635.894043 518.007324,673.780762 518.007324,711.667480 
	C517.489258,711.715576 516.971191,711.763733 516.453125,711.811829 
	C516.307678,710.333374 516.036255,708.854980 516.035278,707.376465 
	C516.012390,672.730286 516.000671,638.084045 516.074341,603.438049 
	C516.077942,601.741028 516.876221,600.045715 517.652222,598.174805 
	C518.000000,598.000000 518.007324,598.007324 518.007324,598.007324 
z"/>
<path fill="#11A1FB" opacity="1.000000" stroke="none" 
	d="
M745.047485,628.035706 
	C745.016479,595.221924 745.016479,562.793335 745.016479,530.364685 
	C745.490540,530.307922 745.964600,530.251160 746.438721,530.194336 
	C746.627808,531.457703 746.980713,532.720886 746.982056,533.984436 
	C747.013672,564.632019 747.023682,595.279602 746.882812,625.926575 
	C746.880249,626.479553 749.050720,630.166199 745.047485,628.035706 
z"/>
<path fill="#109DF4" opacity="1.000000" stroke="none" 
	d="
M806.351318,580.989502 
	C806.023621,580.296936 806.052673,579.588440 806.132202,578.531860 
	C807.255859,578.613403 808.329041,579.042908 809.402161,579.472534 
	C808.504150,579.972839 807.606140,580.473206 806.351318,580.989502 
z"/>
<path fill="#109DF4" opacity="1.000000" stroke="none" 
	d="
M774.670898,608.650024 
	C775.664062,609.158936 776.681641,609.708374 777.699280,610.257812 
	C777.363770,610.674988 777.028259,611.092163 776.692810,611.509277 
	C776.073486,610.783386 775.454224,610.057556 774.725037,608.985596 
	C774.615173,608.639526 774.695312,608.690491 774.670898,608.650024 
z"/>
<path fill="#109DF4" opacity="1.000000" stroke="none" 
	d="
M781.667480,601.646118 
	C782.660156,602.156982 783.677856,602.708496 784.695557,603.260010 
	C784.359436,603.676147 784.023315,604.092224 783.687256,604.508362 
	C783.068848,603.781250 782.450378,603.054077 781.722046,601.980652 
	C781.612183,601.634338 781.692566,601.686707 781.667480,601.646118 
z"/>
<path fill="#109DF4" opacity="1.000000" stroke="none" 
	d="
M767.666382,615.645996 
	C768.488586,616.209656 769.335022,616.813477 770.181519,617.417297 
	C769.988770,617.658569 769.796021,617.899841 769.603210,618.141113 
	C769.008606,617.522583 768.414001,616.904114 767.715271,615.960571 
	C767.611145,615.635498 767.690613,615.686096 767.666382,615.645996 
z"/>
<path fill="#109DF4" opacity="1.000000" stroke="none" 
	d="
M788.667114,594.643433 
	C789.486938,595.210144 790.331360,595.817139 791.175781,596.424133 
	C790.982300,596.664734 790.788879,596.905396 790.595398,597.145996 
	C790.002869,596.525452 789.410339,595.904907 788.714966,594.958374 
	C788.612122,594.632385 788.691711,594.683716 788.667114,594.643433 
z"/>
<path fill="#109DF4" opacity="1.000000" stroke="none" 
	d="
M757.313416,628.971313 
	C757.552795,628.168396 758.105652,627.336731 758.658447,626.505127 
	C758.987427,626.802490 759.316467,627.099854 759.645447,627.397278 
	C758.972595,627.912354 758.299683,628.427490 757.313416,628.971313 
z"/>
<path fill="#11A1FA" opacity="1.000000" stroke="none" 
	d="
M517.996338,597.995789 
	C518.218689,597.613586 518.433899,597.228088 518.684692,596.867249 
	C518.715210,596.823242 518.936951,596.911987 519.070068,596.939270 
	C518.855347,597.255066 518.640625,597.570862 518.216553,597.947021 
	C518.007324,598.007324 518.000000,598.000000 517.996338,597.995789 
z"/>
</svg>