<svg version="1.1" id="Layer_1" xmlns="http://www.w3.org/2000/svg" xmlns:xlink="http://www.w3.org/1999/xlink" x="0px" y="0px"
	 width="100%" viewBox="0 0 2187 860" enable-background="new 0 0 2187 860" xml:space="preserve">
<path fill="#000000" opacity="1.000000" stroke="none" 
	d="
M1335.000000,861.000000 
	C890.000000,861.000000 445.500000,861.000000 1.000000,861.000000 
	C1.000000,574.333313 1.000000,287.666656 1.000000,1.000000 
	C730.000000,1.000000 1459.000000,1.000000 2188.000000,1.000000 
	C2188.000000,287.666656 2188.000000,574.333313 2188.000000,861.000000 
	C1903.833374,861.000000 1619.666626,861.000000 1335.000000,861.000000 
M571.224792,440.228271 
	C571.224792,440.228271 571.178528,440.411652 570.631470,440.484955 
	C570.205139,441.025116 569.778809,441.565277 568.896423,442.481415 
	C568.632263,442.773224 568.368103,443.065033 567.556091,443.422119 
	C567.170166,444.008026 566.784180,444.593933 566.218384,445.221954 
	C566.218384,445.221954 566.176331,445.401733 565.626526,445.472717 
	C565.198120,446.016205 564.769653,446.559692 563.884399,447.467041 
	C563.622070,447.754181 563.359741,448.041351 562.537903,448.384521 
	C562.131958,448.975281 561.726013,449.566040 561.169800,450.171539 
	C561.169800,450.171539 561.155029,450.321838 560.319336,450.570007 
	C555.512207,452.127533 557.369080,448.157623 557.358215,446.569702 
	C557.218628,426.238922 557.163086,405.905823 557.388123,385.576660 
	C557.414062,383.231354 558.704712,380.377197 560.349670,378.660065 
	C569.109253,369.515961 578.109741,360.599182 587.139282,351.718079 
	C597.644470,341.385712 608.265930,331.171600 618.909546,320.899872 
	C618.909546,320.899872 618.900391,320.827545 619.538879,320.638733 
	C628.773682,311.784241 638.047424,302.969788 647.227417,294.058838 
	C652.035645,289.391571 651.996155,289.280304 647.143616,284.425903 
	C583.534180,220.792236 519.914551,157.168823 456.296631,93.543678 
	C451.002869,88.249329 450.997467,88.249603 445.705261,93.541756 
	C370.072021,169.174179 294.438568,244.806427 218.807175,320.440674 
	C183.815979,355.433228 148.890076,390.491547 113.750336,425.334198 
	C110.040886,429.012299 110.357155,430.881134 113.874138,434.349365 
	C136.058578,456.226532 158.007935,478.342041 180.039368,500.374420 
	C268.872101,589.210754 357.712189,678.039795 446.513428,766.907654 
	C449.253601,769.649841 451.751526,771.726624 455.756714,767.747375 
	C462.093384,761.436218 468.457245,755.152100 474.761475,748.808716 
	C491.801422,731.662842 508.815918,714.491760 526.455383,697.269165 
	C529.477295,693.979248 532.499207,690.689331 536.164795,687.223938 
	C542.156433,681.224976 548.148071,675.225952 554.758911,668.955017 
	C557.324097,666.079102 559.889343,663.203186 563.106628,660.189636 
	C564.685791,658.579346 566.264954,656.969116 568.463745,655.298828 
	C571.711487,651.909363 574.959167,648.519897 578.769287,644.780884 
	C583.869080,639.565857 588.968811,634.350830 594.707764,628.923462 
	C597.550476,625.997559 600.393127,623.071655 603.712830,619.778625 
	C604.090698,619.310303 604.468628,618.842041 605.467407,618.315857 
	C609.706543,613.934021 613.945679,609.552185 618.009338,605.027222 
	C618.009338,605.027222 618.172852,605.184448 618.731140,604.965515 
	C619.230408,604.357178 619.729736,603.748840 620.777405,602.777344 
	C630.563782,592.925415 640.350220,583.073547 650.704468,572.998535 
	C651.210876,572.377991 651.717346,571.757385 652.773315,570.770264 
	C659.797791,563.639954 666.822266,556.509644 674.466858,549.313660 
	C683.125244,540.314270 691.783569,531.314880 701.104431,522.193359 
	C705.356567,517.978455 709.608643,513.763489 714.474487,509.367523 
	C716.721497,506.956940 718.968506,504.546387 721.724426,501.828369 
	C722.535889,500.968994 723.347351,500.109619 724.723511,498.894104 
	C728.965332,494.370178 733.207214,489.846252 738.104187,485.192169 
	C741.353394,481.933594 744.602600,478.675049 748.471802,475.335266 
	C749.829041,473.498566 750.968323,471.439026 752.580017,469.862366 
	C761.169373,461.459534 769.876892,453.177490 779.061401,444.397522 
	C782.095642,441.352783 785.129883,438.308014 788.778015,435.012268 
	C792.361877,432.486023 792.956970,430.088928 789.463379,426.613403 
	C756.654846,393.974457 723.944824,361.236176 691.286560,328.446747 
	C688.502563,325.651611 686.595276,325.790497 683.861145,328.508453 
	C654.765015,357.432465 625.576355,386.263428 595.882263,415.539001 
	C594.964294,416.517853 594.046265,417.496704 592.594543,418.509064 
	C592.198120,419.045319 591.801636,419.581573 590.867432,420.521271 
	C589.951965,421.492676 589.036499,422.464081 587.586792,423.479370 
	C587.201355,424.027344 586.815918,424.575317 585.882935,425.515137 
	C584.961060,426.482330 584.039124,427.449493 582.579773,428.463440 
	C582.190796,429.015564 581.801758,429.567719 580.865051,430.503693 
	C579.947083,431.464966 579.029114,432.426270 577.579407,433.444519 
	C577.207764,434.006805 576.836121,434.569122 575.895447,435.489899 
	C574.966309,436.451660 574.037170,437.413422 572.562927,438.439209 
	C572.178040,439.020111 571.793091,439.601013 571.224792,440.228271 
M938.000000,385.500488 
	C938.320923,394.969391 938.846375,404.436737 938.919189,413.907562 
	C939.061523,432.405640 939.034058,450.906250 938.902344,469.404572 
	C938.852722,476.375671 938.377319,483.346680 937.981262,490.311218 
	C937.787476,493.718414 939.114685,495.199615 942.608398,495.033112 
	C946.433105,494.850891 950.273926,494.928253 954.105774,495.000275 
	C956.844299,495.051758 958.149841,493.835419 957.977539,491.101532 
	C957.664307,486.131836 957.067932,481.164642 957.047241,476.194489 
	C956.947815,452.361969 956.994446,428.528809 957.022339,404.695923 
	C957.023743,403.515442 957.336670,402.335358 957.660339,400.059326 
	C976.091064,429.150299 994.026367,457.145660 1011.567749,485.385651 
	C1015.539917,491.780396 1019.351440,496.826141 1027.894409,495.080536 
	C1030.454346,494.557495 1033.225708,494.820526 1035.874390,495.037750 
	C1039.821533,495.361450 1041.040039,493.702179 1041.062256,489.828766 
	C1041.289429,450.193146 1041.670654,410.558380 1041.981201,370.923187 
	C1041.994995,369.167603 1041.742432,367.409882 1041.584106,365.244110 
	C1036.579956,365.981750 1032.191650,366.760498 1027.770996,367.243103 
	C1023.351685,367.725555 1021.837036,369.697601 1021.879272,374.369415 
	C1022.126282,401.700073 1022.000122,429.034058 1021.999939,456.366943 
	C1021.999939,458.087616 1022.000000,459.808319 1022.000000,461.528992 
	C1020.504639,461.312103 1020.144714,460.762848 1019.797791,460.205505 
	C1003.358826,433.794128 986.751160,407.485657 970.549622,380.929413 
	C961.485229,366.071838 961.788757,365.886688 944.292725,366.000732 
	C943.626099,366.005096 942.955322,366.058533 942.293457,366.004028 
	C938.992188,365.732269 937.886963,367.380524 937.974365,370.502106 
	C938.104919,375.164917 938.002991,379.834290 938.000000,385.500488 
M1563.387939,494.029388 
	C1581.923096,488.670258 1593.284058,476.091766 1599.067993,458.140442 
	C1604.771729,440.437836 1604.728027,422.323029 1600.730591,404.438324 
	C1596.467896,385.366547 1585.367920,371.446838 1565.589966,366.985352 
	C1556.970337,365.040863 1547.713501,364.572083 1538.875366,365.213989 
	C1517.673706,366.753906 1501.740234,377.747101 1493.808838,398.411346 
	C1486.948486,416.284821 1486.592651,434.861298 1490.442139,453.367493 
	C1494.310791,471.966370 1503.693237,486.795563 1522.707153,493.211884 
	C1535.793579,497.627991 1549.221802,496.904663 1563.387939,494.029388 
M1676.480469,486.937408 
	C1676.332153,475.462860 1676.074097,463.987091 1676.201050,452.515594 
	C1676.214111,451.337921 1678.429688,449.340363 1679.792969,449.181671 
	C1683.736450,448.722748 1687.779785,449.205292 1691.759033,448.942322 
	C1695.266724,448.710480 1697.040527,450.202576 1698.721069,453.211945 
	C1706.094482,466.414764 1713.786987,479.438995 1721.334106,492.545105 
	C1723.172729,495.737915 1725.742065,497.582123 1729.515137,496.916840 
	C1733.923218,496.139557 1738.352661,495.358612 1742.660889,494.173004 
	C1747.348755,492.882965 1747.685425,491.447296 1744.989990,487.555603 
	C1736.093994,474.711731 1727.215576,461.855713 1718.379639,448.970642 
	C1717.282227,447.370331 1716.480713,445.567200 1715.479004,443.743225 
	C1716.832520,442.678467 1717.811401,441.783936 1718.906250,441.066132 
	C1730.199219,433.662964 1737.484985,423.525879 1739.443848,410.046051 
	C1743.053223,385.207733 1729.015625,366.475342 1703.788818,366.044769 
	C1689.472900,365.800415 1675.146484,366.167023 1660.831177,365.906647 
	C1656.148315,365.821442 1654.801758,367.456421 1654.928101,371.956909 
	C1655.436646,390.070770 1655.924561,408.192474 1655.926880,426.311310 
	C1655.929077,444.097076 1655.234741,461.881775 1655.029663,479.669037 
	C1654.852173,495.067017 1654.966064,495.068329 1670.435181,494.999451 
	C1677.237305,494.969177 1677.276855,494.924011 1676.480469,486.937408 
M1295.432861,416.912476 
	C1306.102905,400.260010 1316.772827,383.607513 1328.031372,366.036469 
	C1320.122925,366.036469 1313.646973,365.923187 1307.182129,366.140900 
	C1306.019653,366.180084 1304.487305,367.327759 1303.830078,368.396667 
	C1297.651855,378.445404 1291.708740,388.638702 1285.523438,398.682983 
	C1282.360352,403.819946 1278.843140,408.738861 1274.883301,414.656952 
	C1265.458984,399.311066 1256.631592,384.881317 1247.719604,370.504059 
	C1246.726562,368.902008 1245.313477,366.417969 1243.991943,366.350006 
	C1236.283203,365.953339 1228.543701,366.155640 1220.111450,366.155640 
	C1221.043091,368.046295 1221.447021,369.092041 1222.033447,370.022766 
	C1234.085449,389.153625 1246.063965,408.332306 1258.322998,427.329895 
	C1260.305298,430.401642 1260.167236,432.427887 1258.239868,435.283722 
	C1246.141235,453.209290 1234.188232,471.233124 1222.210083,489.239716 
	C1221.177856,490.791351 1220.312134,492.453705 1218.822876,494.997742 
	C1225.650146,494.997742 1231.286133,494.851746 1236.909546,495.053864 
	C1240.155762,495.170532 1241.814819,493.859009 1243.577515,491.115845 
	C1253.013672,476.430298 1262.772217,461.951782 1272.451172,447.422852 
	C1272.674316,447.087830 1273.271973,447.002319 1274.285889,446.518372 
	C1283.689331,461.006287 1293.062012,475.488068 1302.497070,489.929169 
	C1303.630249,491.663879 1305.025391,494.493927 1306.429199,494.575439 
	C1314.256714,495.029816 1322.124390,494.793793 1330.615723,494.793793 
	C1329.712280,493.005829 1329.346191,492.101318 1328.832275,491.290497 
	C1317.528564,473.455902 1306.789551,455.221649 1294.631104,437.989197 
	C1289.064819,430.100128 1288.230347,424.227722 1295.432861,416.912476 
M1104.003662,477.695068 
	C1104.002808,481.527344 1104.269653,485.383240 1103.933472,489.185883 
	C1103.514771,493.922729 1105.524048,495.122986 1109.983521,495.080658 
	C1129.809326,494.892548 1149.638062,495.026947 1169.465332,494.974182 
	C1172.934326,494.964935 1177.081055,495.680481 1179.632080,494.052155 
	C1181.330566,492.967987 1180.751343,488.316315 1181.193359,485.261627 
	C1181.217163,485.097229 1181.262695,484.936096 1181.291016,484.772247 
	C1182.342773,478.675262 1181.863525,478.027466 1175.798218,478.013214 
	C1160.635986,477.977570 1145.472900,477.919281 1130.311890,478.054504 
	C1126.594482,478.087646 1124.845093,477.121887 1124.933594,473.019562 
	C1125.149292,463.027130 1125.145630,453.023926 1124.934326,443.031281 
	C1124.848755,438.985626 1126.483765,437.867737 1130.261719,437.942993 
	C1139.422119,438.125519 1148.588501,438.000488 1157.752563,438.000092 
	C1168.484253,437.999603 1168.484253,437.999939 1170.365723,427.480804 
	C1171.376587,421.828156 1170.773804,421.039124 1164.997925,421.015503 
	C1153.834595,420.969818 1142.664917,420.785278 1131.510376,421.099030 
	C1126.601685,421.237091 1124.513306,419.958740 1124.918701,414.711670 
	C1125.558228,406.435547 1125.732666,398.120270 1125.977173,389.817841 
	C1126.177246,383.020538 1126.095337,383.006805 1132.967407,383.002411 
	C1147.296631,382.993286 1161.627075,383.086517 1175.953125,382.875641 
	C1177.620728,382.851105 1180.257324,381.517029 1180.715088,380.192383 
	C1181.719360,377.285950 1181.657349,374.000305 1181.951172,370.862030 
	C1182.264771,367.513306 1180.745728,365.983582 1177.313232,365.990662 
	C1154.319946,366.038208 1131.326782,366.032806 1108.333496,365.986664 
	C1105.517334,365.981018 1103.972656,366.832428 1103.988770,369.958893 
	C1104.066650,385.120422 1104.057373,400.282471 1104.055420,415.444336 
	C1104.052734,435.876892 1104.028320,456.309448 1104.003662,477.695068 
M2049.260498,447.172150 
	C2050.309082,447.991394 2051.343994,448.829285 2052.408936,449.626740 
	C2059.118408,454.651520 2060.791504,461.744812 2056.960938,468.975189 
	C2053.055176,476.347443 2043.226440,481.175934 2033.982910,479.861725 
	C2023.924927,478.431732 2014.758423,474.676819 2006.782959,468.262604 
	C2003.100708,465.301178 2000.849854,466.075745 2000.149292,470.768616 
	C1999.586182,474.541656 1999.875488,478.532745 1998.768799,482.112457 
	C1997.126343,487.425201 1999.741821,489.291351 2003.976074,490.877960 
	C2015.387207,495.153748 2027.158569,496.583862 2039.271606,496.019867 
	C2053.510986,495.356903 2065.378418,490.120117 2073.982422,478.429291 
	C2082.063721,467.448547 2082.829590,450.564636 2074.489258,440.650665 
	C2069.908447,435.205200 2063.740234,430.807526 2057.621094,427.011902 
	C2048.735107,421.500000 2039.031006,417.308441 2030.133545,411.812653 
	C2027.071167,409.920959 2023.990356,406.079193 2023.323730,402.659241 
	C2021.306152,392.309967 2029.489136,383.588715 2040.107056,382.926178 
	C2049.930420,382.313202 2058.400635,385.297760 2066.302979,390.803101 
	C2070.652832,393.833435 2072.967041,392.844330 2073.946777,387.732727 
	C2074.790527,383.331482 2075.658936,378.905090 2075.982422,374.451050 
	C2076.088379,372.994751 2074.858643,370.465881 2073.662354,370.036438 
	C2055.023682,363.345245 2036.440430,361.449829 2018.345947,371.873718 
	C2007.273926,378.252045 1999.432739,392.955261 2001.748413,407.613129 
	C2003.706055,420.004395 2011.548340,427.203064 2021.616577,432.757904 
	C2030.502563,437.660492 2039.608765,442.164032 2049.260498,447.172150 
M1401.000000,458.501617 
	C1401.000000,455.004486 1400.994385,451.507324 1401.001221,448.010193 
	C1401.014648,441.023041 1401.017456,441.012939 1407.772461,441.002716 
	C1415.432861,440.991150 1423.093262,441.000031 1430.753662,441.000000 
	C1441.484131,440.999908 1441.484131,440.999908 1443.363037,430.490479 
	C1444.375488,424.827209 1443.777832,424.042053 1438.013794,424.015533 
	C1427.689087,423.968018 1417.356567,423.768219 1407.042480,424.100067 
	C1402.089722,424.259369 1400.656006,422.442596 1400.933350,417.751221 
	C1401.492065,408.303345 1401.872925,398.833588 1401.907715,389.371307 
	C1401.923096,385.217957 1403.297607,383.852356 1407.412476,383.928955 
	C1418.732666,384.139771 1430.059204,384.000519 1441.383301,384.000061 
	C1451.820068,383.999634 1451.819702,383.999817 1453.108643,373.832581 
	C1453.150513,373.502686 1453.214600,373.175476 1453.270386,372.847412 
	C1454.351807,366.501831 1453.968994,366.015411 1447.382935,366.008698 
	C1426.899780,365.987793 1406.415405,366.111267 1385.934204,365.915619 
	C1381.408936,365.872375 1379.783569,367.199585 1379.920166,371.854462 
	C1380.451416,389.969452 1380.743652,408.092743 1380.972412,426.214874 
	C1381.119385,437.870148 1381.127441,449.530579 1380.960449,461.185272 
	C1380.822266,470.815826 1380.410400,480.444824 1379.966431,490.067444 
	C1379.798218,493.709259 1381.138916,495.231842 1384.858643,495.043213 
	C1389.011230,494.832642 1393.191406,494.825165 1397.343262,495.042389 
	C1401.260254,495.247284 1402.152344,493.359009 1402.001587,489.880219 
	C1401.563110,479.758301 1401.319824,469.627869 1401.000000,458.501617 
M1819.001465,489.318054 
	C1818.405884,493.644257 1820.181152,495.572632 1824.611938,495.027039 
	C1826.088867,494.845154 1827.607300,494.999878 1829.106689,494.999939 
	C1840.661133,495.000549 1840.661133,495.000488 1840.026001,483.716156 
	C1840.016724,483.549896 1840.010620,483.383057 1840.012329,483.216583 
	C1840.344482,451.259735 1840.705444,419.303131 1840.968384,387.345734 
	C1840.995117,384.097626 1842.276123,382.907990 1845.443359,382.972046 
	C1851.605103,383.096649 1857.772095,383.063599 1863.935181,382.975677 
	C1867.241333,382.928589 1871.172607,383.634521 1873.627441,382.095612 
	C1875.267212,381.067780 1874.803223,376.685242 1875.283936,373.804474 
	C1875.311157,373.640869 1875.378418,373.484131 1875.408691,373.320740 
	C1876.607910,366.878021 1875.924438,366.013550 1869.334595,366.008362 
	C1845.177124,365.989349 1821.019653,366.000244 1796.862183,366.000000 
	C1784.882202,365.999908 1785.128540,366.027618 1783.765869,378.186981 
	C1783.288696,382.444977 1784.893555,383.052704 1788.315063,383.021667 
	C1796.977661,382.943115 1805.643066,383.093994 1814.304199,382.959381 
	C1817.696167,382.906677 1819.006226,384.105927 1819.054565,387.594025 
	C1819.236572,400.726837 1819.971191,413.857239 1819.929199,426.986725 
	C1819.863647,447.448853 1819.333496,467.909454 1819.001465,489.318054 
M1925.000000,442.500000 
	C1925.000000,448.993683 1925.121338,455.490143 1924.971069,461.980347 
	C1924.752197,471.442719 1924.397339,480.903229 1923.975586,490.358948 
	C1923.821777,493.809265 1925.205444,495.174103 1928.648193,495.034912 
	C1932.970215,494.860138 1937.310547,494.851379 1941.632080,495.031555 
	C1945.333374,495.185852 1946.313232,493.301331 1945.962769,490.095184 
	C1945.656738,487.294159 1945.050903,484.496887 1945.043701,481.696777 
	C1944.973389,454.556732 1944.915649,427.415985 1945.047363,400.276398 
	C1945.094849,390.482208 1945.588379,380.687134 1946.034546,370.899536 
	C1946.202026,367.224792 1944.795166,365.752991 1941.109497,365.959686 
	C1937.458008,366.164520 1933.761230,366.270142 1930.128906,365.935028 
	C1925.279419,365.487640 1923.806641,367.373749 1923.915039,372.162445 
	C1924.438232,395.271301 1924.666870,418.386871 1925.000000,442.500000 
z"/>
<path fill="#0F91E2" opacity="1.000000" stroke="none" 
	d="
M525.840515,697.330688 
	C508.815918,714.491760 491.801422,731.662842 474.761475,748.808716 
	C468.457245,755.152100 462.093384,761.436218 455.074341,767.908203 
	C451.640656,766.832214 448.309052,766.209717 446.237762,764.253113 
	C436.934174,755.464355 427.944000,746.340942 418.923370,737.256287 
	C399.826477,718.023682 380.858368,698.662659 361.694611,679.497131 
	C338.886841,656.687317 315.887054,634.069641 293.050171,611.288757 
	C275.510864,593.792480 258.133057,576.134277 240.614059,558.617554 
	C221.095947,539.101868 201.481735,519.682434 181.942078,500.188293 
	C163.932281,482.220398 146.009628,464.165009 127.953575,446.243896 
	C122.572235,440.902771 116.870338,435.884644 111.157776,430.571991 
	C113.352890,428.225342 114.443878,426.988739 115.607620,425.824921 
	C225.759048,315.665771 335.915497,205.511673 446.074158,95.359772 
	C450.991272,90.442955 451.010651,90.444824 456.071045,95.504379 
	C496.719910,136.146652 537.365234,176.792496 578.011597,217.437210 
	C600.632202,240.056931 623.189880,262.740204 645.942322,285.226532 
	C649.285706,288.530853 649.228699,290.647827 645.834778,293.635498 
	C641.724792,297.253540 637.914551,301.220062 634.068604,305.128296 
	C628.964966,310.314575 623.952209,315.590271 618.900391,320.827545 
	C618.900391,320.827545 618.909546,320.899872 618.530151,320.988129 
	C616.038452,322.314423 613.557068,323.179352 611.870911,324.847992 
	C594.140747,342.394135 576.490784,360.022522 558.979736,377.786987 
	C557.417969,379.371338 556.176575,382.061951 556.155396,384.252014 
	C555.946594,405.869049 555.998962,427.489044 556.087952,449.107727 
	C556.094116,450.592407 556.987610,452.073456 557.468384,453.556213 
	C558.697266,452.478058 559.926147,451.399933 561.155029,450.321838 
	C561.155029,450.321838 561.169800,450.171539 561.510254,450.097900 
	C562.266235,449.458984 562.681824,448.893738 563.097412,448.328491 
	C563.359741,448.041351 563.622070,447.754181 564.373596,447.226685 
	C565.300659,446.458099 565.738464,445.929901 566.176270,445.401733 
	C566.176331,445.401733 566.218384,445.221954 566.564697,445.127716 
	C567.308655,444.474609 567.706299,443.915741 568.103943,443.356873 
	C568.368103,443.065033 568.632263,442.773224 569.383911,442.234894 
	C570.307129,441.462799 570.742798,440.937225 571.178528,440.411652 
	C571.178528,440.411652 571.224792,440.228271 571.570740,440.131775 
	C572.313782,439.481934 572.710876,438.928528 573.108032,438.375183 
	C574.037170,437.413422 574.966309,436.451660 576.426758,435.241577 
	C577.342407,434.458038 577.726746,433.922791 578.111145,433.387573 
	C579.029114,432.426270 579.947083,431.464966 581.388977,430.249573 
	C582.314331,429.469177 582.715759,428.942932 583.117188,428.416656 
	C584.039124,427.449493 584.961060,426.482330 586.404053,425.256714 
	C587.323853,424.477356 587.722412,423.956421 588.120972,423.435486 
	C589.036499,422.464081 589.951965,421.492676 591.383911,420.262238 
	C592.309692,419.493988 592.718994,418.984772 593.128235,418.475555 
	C594.046265,417.496704 594.964294,416.517853 596.483765,415.244263 
	C599.057251,413.827362 601.394653,413.072510 602.946777,411.528351 
	C629.507141,385.103882 655.967651,358.579041 682.457520,332.083649 
	C687.539062,327.001068 687.567993,327.001160 692.588867,332.020660 
	C723.913208,363.336945 755.193359,394.697632 786.609436,425.921631 
	C789.654541,428.948151 791.475586,431.499969 788.164185,435.263306 
	C785.129883,438.308014 782.095642,441.352783 778.438110,444.642334 
	C776.058105,445.676392 773.971558,446.098999 772.608032,447.325439 
	C768.911621,450.650055 765.361389,454.172150 762.048218,457.879669 
	C757.036194,463.488220 749.844727,467.362396 747.851807,475.416443 
	C744.602600,478.675049 741.353394,481.933594 737.402100,485.160614 
	C730.762512,488.275604 725.627441,492.134827 724.158752,499.250214 
	C723.347351,500.109619 722.535889,500.968994 721.085449,501.933533 
	C715.998169,502.566071 714.005920,505.247437 713.860718,509.548584 
	C709.608643,513.763489 705.356567,517.978455 700.399475,522.158081 
	C698.031921,523.118408 696.121033,523.853394 694.752625,525.157593 
	C690.426697,529.280701 686.091797,533.431946 682.170166,537.929626 
	C679.081299,541.472046 676.598633,545.543030 673.846741,549.379272 
	C666.822266,556.509644 659.797791,563.639954 652.172974,570.998901 
	C651.093994,571.892212 650.615295,572.556946 650.136658,573.221680 
	C640.350220,583.073547 630.563782,592.925415 620.180420,602.998474 
	C619.113281,603.874512 618.643066,604.529480 618.172852,605.184448 
	C618.172852,605.184448 618.009338,605.027222 617.713989,605.088501 
	C610.637329,607.094788 607.121277,612.144165 604.846497,618.373718 
	C604.468628,618.842041 604.090698,619.310303 603.088989,619.942139 
	C596.743286,620.397705 596.255066,625.556335 594.068542,629.135742 
	C588.968811,634.350830 583.869080,639.565857 578.106689,644.904053 
	C571.594177,646.008911 569.472900,650.455078 567.844177,655.358887 
	C566.264954,656.969116 564.685791,658.579346 562.400513,660.162842 
	C556.481628,660.927185 556.104065,665.736389 554.139709,669.226990 
	C548.148071,675.225952 542.156433,681.224976 535.464172,687.207031 
	C529.388550,688.457886 527.380798,692.688599 525.840515,697.330688 
M517.148804,537.905090 
	C518.647583,538.605896 520.123047,539.845337 521.649231,539.911194 
	C527.291809,540.154846 532.951111,540.012207 538.604126,540.012207 
	C562.380066,540.012146 586.156067,540.031311 609.931885,539.980347 
	C612.402405,539.975037 615.624939,540.929932 615.614197,536.167786 
	C611.070618,531.585449 606.549011,526.981140 601.977844,522.426514 
	C596.547668,517.016052 591.319885,511.368805 585.564331,506.326416 
	C576.509644,498.393555 567.035706,490.941315 557.838135,483.168610 
	C551.529236,477.837067 545.361938,472.336487 539.177124,466.859802 
	C524.178162,453.578003 509.198669,440.274170 494.225983,426.962738 
	C486.934967,420.480713 479.658783,413.981750 472.407318,407.455475 
	C457.513580,394.051147 442.620331,380.646088 427.764984,367.199219 
	C409.688080,350.836243 391.655914,334.423828 373.593750,318.044525 
	C362.667297,308.136108 351.767517,298.197235 340.741486,288.400635 
	C338.662476,286.553436 336.044556,285.312836 332.702454,283.167969 
	C332.702454,286.736603 332.702393,288.877838 332.702484,291.019073 
	C332.706024,380.351593 332.702606,469.684143 332.767700,559.016602 
	C332.768860,560.642090 333.587280,562.266846 334.024353,563.891968 
	C335.387543,563.081238 336.986023,562.507751 338.078491,561.424194 
	C354.040955,545.591614 369.883820,529.638062 385.898987,513.859375 
	C388.508759,511.288147 389.459473,508.635468 389.440643,505.042786 
	C389.314697,481.043640 389.316956,457.043213 389.458679,433.044281 
	C389.473267,430.572479 390.678955,428.107758 391.514923,424.948273 
	C399.914337,432.230042 407.139130,438.492645 414.363007,444.756287 
	C421.984070,451.364380 429.699554,457.867401 437.201752,464.607819 
	C447.554840,473.909607 457.734314,483.404449 468.011749,492.790802 
	C476.208496,500.276855 484.433472,507.732056 492.658966,515.186646 
	C500.751190,522.520447 508.859772,529.836182 517.148804,537.905090 
M329.972443,448.500000 
	C329.972443,486.345917 329.972443,524.191833 329.972443,562.037720 
	C330.185272,562.036499 330.398071,562.035217 330.610901,562.033936 
	C330.610901,470.073242 330.610901,378.112549 330.610901,286.151855 
	C330.398041,286.152069 330.185150,286.152283 329.972290,286.152466 
	C329.972290,339.934967 329.972290,393.717499 329.972443,448.500000 
z"/>
<path fill="#262525" opacity="1.000000" stroke="none" 
	d="
M938.000000,385.000671 
	C938.002991,379.834290 938.104919,375.164917 937.974365,370.502106 
	C937.886963,367.380524 938.992188,365.732269 942.293457,366.004028 
	C942.955322,366.058533 943.626099,366.005096 944.292725,366.000732 
	C961.788757,365.886688 961.485229,366.071838 970.549622,380.929413 
	C986.751160,407.485657 1003.358826,433.794128 1019.797791,460.205505 
	C1020.144714,460.762848 1020.504639,461.312103 1022.000000,461.528992 
	C1022.000000,459.808319 1021.999939,458.087616 1021.999939,456.366943 
	C1022.000122,429.034058 1022.126282,401.700073 1021.879272,374.369415 
	C1021.837036,369.697601 1023.351685,367.725555 1027.770996,367.243103 
	C1032.191650,366.760498 1036.579956,365.981750 1041.584106,365.244110 
	C1041.742432,367.409882 1041.994995,369.167603 1041.981201,370.923187 
	C1041.670654,410.558380 1041.289429,450.193146 1041.062256,489.828766 
	C1041.040039,493.702179 1039.821533,495.361450 1035.874390,495.037750 
	C1033.225708,494.820526 1030.454346,494.557495 1027.894409,495.080536 
	C1019.351440,496.826141 1015.539917,491.780396 1011.567749,485.385651 
	C994.026367,457.145660 976.091064,429.150299 957.660339,400.059326 
	C957.336670,402.335358 957.023743,403.515442 957.022339,404.695923 
	C956.994446,428.528809 956.947815,452.361969 957.047241,476.194489 
	C957.067932,481.164642 957.664307,486.131836 957.977539,491.101532 
	C958.149841,493.835419 956.844299,495.051758 954.105774,495.000275 
	C950.273926,494.928253 946.433105,494.850891 942.608398,495.033112 
	C939.114685,495.199615 937.787476,493.718414 937.981262,490.311218 
	C938.377319,483.346680 938.852722,476.375671 938.902344,469.404572 
	C939.034058,450.906250 939.061523,432.405640 938.919189,413.907562 
	C938.846375,404.436737 938.320923,394.969391 938.000000,385.000671 
z"/>
<path fill="#262525" opacity="1.000000" stroke="none" 
	d="
M1562.993896,494.143280 
	C1549.221802,496.904663 1535.793579,497.627991 1522.707153,493.211884 
	C1503.693237,486.795563 1494.310791,471.966370 1490.442139,453.367493 
	C1486.592651,434.861298 1486.948486,416.284821 1493.808838,398.411346 
	C1501.740234,377.747101 1517.673706,366.753906 1538.875366,365.213989 
	C1547.713501,364.572083 1556.970337,365.040863 1565.589966,366.985352 
	C1585.367920,371.446838 1596.467896,385.366547 1600.730591,404.438324 
	C1604.728027,422.323029 1604.771729,440.437836 1599.067993,458.140442 
	C1593.284058,476.091766 1581.923096,488.670258 1562.993896,494.143280 
M1511.034912,417.874146 
	C1511.214233,431.629211 1509.800049,445.475067 1514.753052,458.862152 
	C1519.640137,472.071442 1530.742554,479.971436 1545.383911,479.998138 
	C1560.938843,480.026489 1572.608032,472.435608 1577.120239,458.939453 
	C1582.253418,443.585815 1582.068970,427.915771 1579.258301,412.155762 
	C1574.682129,386.496368 1557.476074,379.382477 1534.464600,384.295502 
	C1530.330444,385.178131 1526.313965,387.983887 1522.931885,390.745148 
	C1514.752319,397.423309 1512.909912,407.249573 1511.034912,417.874146 
z"/>
<path fill="#262525" opacity="1.000000" stroke="none" 
	d="
M1676.603516,487.376099 
	C1677.276855,494.924011 1677.237305,494.969177 1670.435181,494.999451 
	C1654.966064,495.068329 1654.852173,495.067017 1655.029663,479.669037 
	C1655.234741,461.881775 1655.929077,444.097076 1655.926880,426.311310 
	C1655.924561,408.192474 1655.436646,390.070770 1654.928101,371.956909 
	C1654.801758,367.456421 1656.148315,365.821442 1660.831177,365.906647 
	C1675.146484,366.167023 1689.472900,365.800415 1703.788818,366.044769 
	C1729.015625,366.475342 1743.053223,385.207733 1739.443848,410.046051 
	C1737.484985,423.525879 1730.199219,433.662964 1718.906250,441.066132 
	C1717.811401,441.783936 1716.832520,442.678467 1715.479004,443.743225 
	C1716.480713,445.567200 1717.282227,447.370331 1718.379639,448.970642 
	C1727.215576,461.855713 1736.093994,474.711731 1744.989990,487.555603 
	C1747.685425,491.447296 1747.348755,492.882965 1742.660889,494.173004 
	C1738.352661,495.358612 1733.923218,496.139557 1729.515137,496.916840 
	C1725.742065,497.582123 1723.172729,495.737915 1721.334106,492.545105 
	C1713.786987,479.438995 1706.094482,466.414764 1698.721069,453.211945 
	C1697.040527,450.202576 1695.266724,448.710480 1691.759033,448.942322 
	C1687.779785,449.205292 1683.736450,448.722748 1679.792969,449.181671 
	C1678.429688,449.340363 1676.214111,451.337921 1676.201050,452.515594 
	C1676.074097,463.987091 1676.332153,475.462860 1676.603516,487.376099 
M1702.563599,429.198059 
	C1716.710693,423.192230 1718.994995,408.400726 1716.020508,396.890350 
	C1714.574219,391.294067 1710.982788,386.695343 1705.106079,385.699860 
	C1696.828247,384.297607 1688.388306,383.787842 1679.995972,383.216125 
	C1679.087158,383.154205 1677.215332,385.174408 1677.172974,386.281769 
	C1676.640137,400.211914 1676.285645,414.151062 1676.146484,428.090515 
	C1676.133911,429.360535 1677.930054,431.760620 1678.870483,431.752716 
	C1686.587891,431.687958 1694.547485,433.565033 1702.563599,429.198059 
z"/>
<path fill="#262525" opacity="1.000000" stroke="none" 
	d="
M1295.218140,417.203522 
	C1288.230347,424.227722 1289.064819,430.100128 1294.631104,437.989197 
	C1306.789551,455.221649 1317.528564,473.455902 1328.832275,491.290497 
	C1329.346191,492.101318 1329.712280,493.005829 1330.615723,494.793793 
	C1322.124390,494.793793 1314.256714,495.029816 1306.429199,494.575439 
	C1305.025391,494.493927 1303.630249,491.663879 1302.497070,489.929169 
	C1293.062012,475.488068 1283.689331,461.006287 1274.285889,446.518372 
	C1273.271973,447.002319 1272.674316,447.087830 1272.451172,447.422852 
	C1262.772217,461.951782 1253.013672,476.430298 1243.577515,491.115845 
	C1241.814819,493.859009 1240.155762,495.170532 1236.909546,495.053864 
	C1231.286133,494.851746 1225.650146,494.997742 1218.822876,494.997742 
	C1220.312134,492.453705 1221.177856,490.791351 1222.210083,489.239716 
	C1234.188232,471.233124 1246.141235,453.209290 1258.239868,435.283722 
	C1260.167236,432.427887 1260.305298,430.401642 1258.322998,427.329895 
	C1246.063965,408.332306 1234.085449,389.153625 1222.033447,370.022766 
	C1221.447021,369.092041 1221.043091,368.046295 1220.111450,366.155640 
	C1228.543701,366.155640 1236.283203,365.953339 1243.991943,366.350006 
	C1245.313477,366.417969 1246.726562,368.902008 1247.719604,370.504059 
	C1256.631592,384.881317 1265.458984,399.311066 1274.883301,414.656952 
	C1278.843140,408.738861 1282.360352,403.819946 1285.523438,398.682983 
	C1291.708740,388.638702 1297.651855,378.445404 1303.830078,368.396667 
	C1304.487305,367.327759 1306.019653,366.180084 1307.182129,366.140900 
	C1313.646973,365.923187 1320.122925,366.036469 1328.031372,366.036469 
	C1316.772827,383.607513 1306.102905,400.260010 1295.218140,417.203522 
z"/>
<path fill="#262525" opacity="1.000000" stroke="none" 
	d="
M1104.008423,477.218536 
	C1104.028320,456.309448 1104.052734,435.876892 1104.055420,415.444336 
	C1104.057373,400.282471 1104.066650,385.120422 1103.988770,369.958893 
	C1103.972656,366.832428 1105.517334,365.981018 1108.333496,365.986664 
	C1131.326782,366.032806 1154.319946,366.038208 1177.313232,365.990662 
	C1180.745728,365.983582 1182.264771,367.513306 1181.951172,370.862030 
	C1181.657349,374.000305 1181.719360,377.285950 1180.715088,380.192383 
	C1180.257324,381.517029 1177.620728,382.851105 1175.953125,382.875641 
	C1161.627075,383.086517 1147.296631,382.993286 1132.967407,383.002411 
	C1126.095337,383.006805 1126.177246,383.020538 1125.977173,389.817841 
	C1125.732666,398.120270 1125.558228,406.435547 1124.918701,414.711670 
	C1124.513306,419.958740 1126.601685,421.237091 1131.510376,421.099030 
	C1142.664917,420.785278 1153.834595,420.969818 1164.997925,421.015503 
	C1170.773804,421.039124 1171.376587,421.828156 1170.365723,427.480804 
	C1168.484253,437.999939 1168.484253,437.999603 1157.752563,438.000092 
	C1148.588501,438.000488 1139.422119,438.125519 1130.261719,437.942993 
	C1126.483765,437.867737 1124.848755,438.985626 1124.934326,443.031281 
	C1125.145630,453.023926 1125.149292,463.027130 1124.933594,473.019562 
	C1124.845093,477.121887 1126.594482,478.087646 1130.311890,478.054504 
	C1145.472900,477.919281 1160.635986,477.977570 1175.798218,478.013214 
	C1181.863525,478.027466 1182.342773,478.675262 1181.291016,484.772247 
	C1181.262695,484.936096 1181.217163,485.097229 1181.193359,485.261627 
	C1180.751343,488.316315 1181.330566,492.967987 1179.632080,494.052155 
	C1177.081055,495.680481 1172.934326,494.964935 1169.465332,494.974182 
	C1149.638062,495.026947 1129.809326,494.892548 1109.983521,495.080658 
	C1105.524048,495.122986 1103.514771,493.922729 1103.933472,489.185883 
	C1104.269653,485.383240 1104.002808,481.527344 1104.008423,477.218536 
z"/>
<path fill="#262525" opacity="1.000000" stroke="none" 
	d="
M2048.938965,447.007935 
	C2039.608765,442.164032 2030.502563,437.660492 2021.616577,432.757904 
	C2011.548340,427.203064 2003.706055,420.004395 2001.748413,407.613129 
	C1999.432739,392.955261 2007.273926,378.252045 2018.345947,371.873718 
	C2036.440430,361.449829 2055.023682,363.345245 2073.662354,370.036438 
	C2074.858643,370.465881 2076.088379,372.994751 2075.982422,374.451050 
	C2075.658936,378.905090 2074.790527,383.331482 2073.946777,387.732727 
	C2072.967041,392.844330 2070.652832,393.833435 2066.302979,390.803101 
	C2058.400635,385.297760 2049.930420,382.313202 2040.107056,382.926178 
	C2029.489136,383.588715 2021.306152,392.309967 2023.323730,402.659241 
	C2023.990356,406.079193 2027.071167,409.920959 2030.133545,411.812653 
	C2039.031006,417.308441 2048.735107,421.500000 2057.621094,427.011902 
	C2063.740234,430.807526 2069.908447,435.205200 2074.489258,440.650665 
	C2082.829590,450.564636 2082.063721,467.448547 2073.982422,478.429291 
	C2065.378418,490.120117 2053.510986,495.356903 2039.271606,496.019867 
	C2027.158569,496.583862 2015.387207,495.153748 2003.976074,490.877960 
	C1999.741821,489.291351 1997.126343,487.425201 1998.768799,482.112457 
	C1999.875488,478.532745 1999.586182,474.541656 2000.149292,470.768616 
	C2000.849854,466.075745 2003.100708,465.301178 2006.782959,468.262604 
	C2014.758423,474.676819 2023.924927,478.431732 2033.982910,479.861725 
	C2043.226440,481.175934 2053.055176,476.347443 2056.960938,468.975189 
	C2060.791504,461.744812 2059.118408,454.651520 2052.408936,449.626740 
	C2051.343994,448.829285 2050.309082,447.991394 2048.938965,447.007935 
z"/>
<path fill="#262525" opacity="1.000000" stroke="none" 
	d="
M1401.000000,459.001221 
	C1401.319824,469.627869 1401.563110,479.758301 1402.001587,489.880219 
	C1402.152344,493.359009 1401.260254,495.247284 1397.343262,495.042389 
	C1393.191406,494.825165 1389.011230,494.832642 1384.858643,495.043213 
	C1381.138916,495.231842 1379.798218,493.709259 1379.966431,490.067444 
	C1380.410400,480.444824 1380.822266,470.815826 1380.960449,461.185272 
	C1381.127441,449.530579 1381.119385,437.870148 1380.972412,426.214874 
	C1380.743652,408.092743 1380.451416,389.969452 1379.920166,371.854462 
	C1379.783569,367.199585 1381.408936,365.872375 1385.934204,365.915619 
	C1406.415405,366.111267 1426.899780,365.987793 1447.382935,366.008698 
	C1453.968994,366.015411 1454.351807,366.501831 1453.270386,372.847412 
	C1453.214600,373.175476 1453.150513,373.502686 1453.108643,373.832581 
	C1451.819702,383.999817 1451.820068,383.999634 1441.383301,384.000061 
	C1430.059204,384.000519 1418.732666,384.139771 1407.412476,383.928955 
	C1403.297607,383.852356 1401.923096,385.217957 1401.907715,389.371307 
	C1401.872925,398.833588 1401.492065,408.303345 1400.933350,417.751221 
	C1400.656006,422.442596 1402.089722,424.259369 1407.042480,424.100067 
	C1417.356567,423.768219 1427.689087,423.968018 1438.013794,424.015533 
	C1443.777832,424.042053 1444.375488,424.827209 1443.363037,430.490479 
	C1441.484131,440.999908 1441.484131,440.999908 1430.753662,441.000000 
	C1423.093262,441.000031 1415.432861,440.991150 1407.772461,441.002716 
	C1401.017456,441.012939 1401.014648,441.023041 1401.001221,448.010193 
	C1400.994385,451.507324 1401.000000,455.004486 1401.000000,459.001221 
z"/>
<path fill="#262525" opacity="1.000000" stroke="none" 
	d="
M1819.000854,488.844391 
	C1819.333496,467.909454 1819.863647,447.448853 1819.929199,426.986725 
	C1819.971191,413.857239 1819.236572,400.726837 1819.054565,387.594025 
	C1819.006226,384.105927 1817.696167,382.906677 1814.304199,382.959381 
	C1805.643066,383.093994 1796.977661,382.943115 1788.315063,383.021667 
	C1784.893555,383.052704 1783.288696,382.444977 1783.765869,378.186981 
	C1785.128540,366.027618 1784.882202,365.999908 1796.862183,366.000000 
	C1821.019653,366.000244 1845.177124,365.989349 1869.334595,366.008362 
	C1875.924438,366.013550 1876.607910,366.878021 1875.408691,373.320740 
	C1875.378418,373.484131 1875.311157,373.640869 1875.283936,373.804474 
	C1874.803223,376.685242 1875.267212,381.067780 1873.627441,382.095612 
	C1871.172607,383.634521 1867.241333,382.928589 1863.935181,382.975677 
	C1857.772095,383.063599 1851.605103,383.096649 1845.443359,382.972046 
	C1842.276123,382.907990 1840.995117,384.097626 1840.968384,387.345734 
	C1840.705444,419.303131 1840.344482,451.259735 1840.012329,483.216583 
	C1840.010620,483.383057 1840.016724,483.549896 1840.026001,483.716156 
	C1840.661133,495.000488 1840.661133,495.000549 1829.106689,494.999939 
	C1827.607300,494.999878 1826.088867,494.845154 1824.611938,495.027039 
	C1820.181152,495.572632 1818.405884,493.644257 1819.000854,488.844391 
z"/>
<path fill="#0B6FAD" opacity="1.000000" stroke="none" 
	d="
M619.219604,320.733154 
	C623.952209,315.590271 628.964966,310.314575 634.068604,305.128296 
	C637.914551,301.220062 641.724792,297.253540 645.834778,293.635498 
	C649.228699,290.647827 649.285706,288.530853 645.942322,285.226532 
	C623.189880,262.740204 600.632202,240.056931 578.011597,217.437210 
	C537.365234,176.792496 496.719910,136.146652 456.071045,95.504379 
	C451.010651,90.444824 450.991272,90.442955 446.074158,95.359772 
	C335.915497,205.511673 225.759048,315.665771 115.607620,425.824921 
	C114.443878,426.988739 113.352890,428.225342 111.157776,430.571991 
	C116.870338,435.884644 122.572235,440.902771 127.953575,446.243896 
	C146.009628,464.165009 163.932281,482.220398 181.942078,500.188293 
	C201.481735,519.682434 221.095947,539.101868 240.614059,558.617554 
	C258.133057,576.134277 275.510864,593.792480 293.050171,611.288757 
	C315.887054,634.069641 338.886841,656.687317 361.694611,679.497131 
	C380.858368,698.662659 399.826477,718.023682 418.923370,737.256287 
	C427.944000,746.340942 436.934174,755.464355 446.237762,764.253113 
	C448.309052,766.209717 451.640656,766.832214 454.810760,768.105896 
	C451.751526,771.726624 449.253601,769.649841 446.513428,766.907654 
	C357.712189,678.039795 268.872101,589.210754 180.039368,500.374420 
	C158.007935,478.342041 136.058578,456.226532 113.874138,434.349365 
	C110.357155,430.881134 110.040886,429.012299 113.750336,425.334198 
	C148.890076,390.491547 183.815979,355.433228 218.807175,320.440674 
	C294.438568,244.806427 370.072021,169.174179 445.705261,93.541756 
	C450.997467,88.249603 451.002869,88.249329 456.296631,93.543678 
	C519.914551,157.168823 583.534180,220.792236 647.143616,284.425903 
	C651.996155,289.280304 652.035645,289.391571 647.227417,294.058838 
	C638.047424,302.969788 628.773682,311.784241 619.219604,320.733154 
z"/>
<path fill="#262525" opacity="1.000000" stroke="none" 
	d="
M1925.000000,442.000000 
	C1924.666870,418.386871 1924.438232,395.271301 1923.915039,372.162445 
	C1923.806641,367.373749 1925.279419,365.487640 1930.128906,365.935028 
	C1933.761230,366.270142 1937.458008,366.164520 1941.109497,365.959686 
	C1944.795166,365.752991 1946.202026,367.224792 1946.034546,370.899536 
	C1945.588379,380.687134 1945.094849,390.482208 1945.047363,400.276398 
	C1944.915649,427.415985 1944.973389,454.556732 1945.043701,481.696777 
	C1945.050903,484.496887 1945.656738,487.294159 1945.962769,490.095184 
	C1946.313232,493.301331 1945.333374,495.185852 1941.632080,495.031555 
	C1937.310547,494.851379 1932.970215,494.860138 1928.648193,495.034912 
	C1925.205444,495.174103 1923.821777,493.809265 1923.975586,490.358948 
	C1924.397339,480.903229 1924.752197,471.442719 1924.971069,461.980347 
	C1925.121338,455.490143 1925.000000,448.993683 1925.000000,442.000000 
z"/>
<path fill="#0B6FAD" opacity="1.000000" stroke="none" 
	d="
M788.471069,435.137787 
	C791.475586,431.499969 789.654541,428.948151 786.609436,425.921631 
	C755.193359,394.697632 723.913208,363.336945 692.588867,332.020660 
	C687.567993,327.001160 687.539062,327.001068 682.457520,332.083649 
	C655.967651,358.579041 629.507141,385.103882 602.946777,411.528351 
	C601.394653,413.072510 599.057251,413.827362 596.749268,415.034760 
	C625.576355,386.263428 654.765015,357.432465 683.861145,328.508453 
	C686.595276,325.790497 688.502563,325.651611 691.286560,328.446747 
	C723.944824,361.236176 756.654846,393.974457 789.463379,426.613403 
	C792.956970,430.088928 792.361877,432.486023 788.471069,435.137787 
z"/>
<path fill="#0B6FAD" opacity="1.000000" stroke="none" 
	d="
M560.737183,450.445923 
	C559.926147,451.399933 558.697266,452.478058 557.468384,453.556213 
	C556.987610,452.073456 556.094116,450.592407 556.087952,449.107727 
	C555.998962,427.489044 555.946594,405.869049 556.155396,384.252014 
	C556.176575,382.061951 557.417969,379.371338 558.979736,377.786987 
	C576.490784,360.022522 594.140747,342.394135 611.870911,324.847992 
	C613.557068,323.179352 616.038452,322.314423 618.493774,320.991272 
	C608.265930,331.171600 597.644470,341.385712 587.139282,351.718079 
	C578.109741,360.599182 569.109253,369.515961 560.349670,378.660065 
	C558.704712,380.377197 557.414062,383.231354 557.388123,385.576660 
	C557.163086,405.905823 557.218628,426.238922 557.358215,446.569702 
	C557.369080,448.157623 555.512207,452.127533 560.737183,450.445923 
z"/>
<path fill="#0B6FAD" opacity="1.000000" stroke="none" 
	d="
M748.161743,475.375854 
	C749.844727,467.362396 757.036194,463.488220 762.048218,457.879669 
	C765.361389,454.172150 768.911621,450.650055 772.608032,447.325439 
	C773.971558,446.098999 776.058105,445.676392 778.179199,444.870422 
	C769.876892,453.177490 761.169373,461.459534 752.580017,469.862366 
	C750.968323,471.439026 749.829041,473.498566 748.161743,475.375854 
z"/>
<path fill="#0B6FAD" opacity="1.000000" stroke="none" 
	d="
M674.156799,549.346436 
	C676.598633,545.543030 679.081299,541.472046 682.170166,537.929626 
	C686.091797,533.431946 690.426697,529.280701 694.752625,525.157593 
	C696.121033,523.853394 698.031921,523.118408 700.068237,522.219177 
	C691.783569,531.314880 683.125244,540.314270 674.156799,549.346436 
z"/>
<path fill="#0B6FAD" opacity="1.000000" stroke="none" 
	d="
M724.441162,499.072144 
	C725.627441,492.134827 730.762512,488.275604 737.074524,485.225708 
	C733.207214,489.846252 728.965332,494.370178 724.441162,499.072144 
z"/>
<path fill="#0B6FAD" opacity="1.000000" stroke="none" 
	d="
M605.156982,618.344788 
	C607.121277,612.144165 610.637329,607.094788 617.801758,605.160034 
	C613.945679,609.552185 609.706543,613.934021 605.156982,618.344788 
z"/>
<path fill="#0B6FAD" opacity="1.000000" stroke="none" 
	d="
M568.153931,655.328857 
	C569.472900,650.455078 571.594177,646.008911 577.825439,645.078796 
	C574.959167,648.519897 571.711487,651.909363 568.153931,655.328857 
z"/>
<path fill="#0B6FAD" opacity="1.000000" stroke="none" 
	d="
M526.147949,697.299927 
	C527.380798,692.688599 529.388550,688.457886 535.142334,687.294739 
	C532.499207,690.689331 529.477295,693.979248 526.147949,697.299927 
z"/>
<path fill="#0B6FAD" opacity="1.000000" stroke="none" 
	d="
M594.388184,629.029602 
	C596.255066,625.556335 596.743286,620.397705 602.850464,620.125671 
	C600.393127,623.071655 597.550476,625.997559 594.388184,629.029602 
z"/>
<path fill="#0B6FAD" opacity="1.000000" stroke="none" 
	d="
M554.449341,669.091003 
	C556.104065,665.736389 556.481628,660.927185 562.074463,660.231689 
	C559.889343,663.203186 557.324097,666.079102 554.449341,669.091003 
z"/>
<path fill="#0B6FAD" opacity="1.000000" stroke="none" 
	d="
M714.167603,509.458038 
	C714.005920,505.247437 715.998169,502.566071 720.830994,502.087250 
	C718.968506,504.546387 716.721497,506.956940 714.167603,509.458038 
z"/>
<path fill="#0B6FAD" opacity="1.000000" stroke="none" 
	d="
M562.817627,448.356506 
	C562.681824,448.893738 562.266235,449.458984 561.585388,450.090515 
	C561.726013,449.566040 562.131958,448.975281 562.817627,448.356506 
z"/>
<path fill="#0B6FAD" opacity="1.000000" stroke="none" 
	d="
M565.901367,445.437195 
	C565.738464,445.929901 565.300659,446.458099 564.602051,447.044739 
	C564.769653,446.559692 565.198120,446.016205 565.901367,445.437195 
z"/>
<path fill="#0B6FAD" opacity="1.000000" stroke="none" 
	d="
M567.830017,443.389496 
	C567.706299,443.915741 567.308655,444.474609 566.654602,445.106659 
	C566.784180,444.593933 567.170166,444.008026 567.830017,443.389496 
z"/>
<path fill="#0B6FAD" opacity="1.000000" stroke="none" 
	d="
M570.905029,440.448303 
	C570.742798,440.937225 570.307129,441.462799 569.612000,442.046906 
	C569.778809,441.565277 570.205139,441.025116 570.905029,440.448303 
z"/>
<path fill="#0B6FAD" opacity="1.000000" stroke="none" 
	d="
M572.835449,438.407166 
	C572.710876,438.928528 572.313782,439.481934 571.662476,440.108612 
	C571.793091,439.601013 572.178040,439.020111 572.835449,438.407166 
z"/>
<path fill="#0B6FAD" opacity="1.000000" stroke="none" 
	d="
M577.845276,433.416016 
	C577.726746,433.922791 577.342407,434.458038 576.711304,435.062378 
	C576.836121,434.569122 577.207764,434.006805 577.845276,433.416016 
z"/>
<path fill="#0B6FAD" opacity="1.000000" stroke="none" 
	d="
M650.420532,573.110107 
	C650.615295,572.556946 651.093994,571.892212 651.898193,571.182129 
	C651.717346,571.757385 651.210876,572.377991 650.420532,573.110107 
z"/>
<path fill="#0B6FAD" opacity="1.000000" stroke="none" 
	d="
M618.452026,605.074951 
	C618.643066,604.529480 619.113281,603.874512 619.906250,603.180054 
	C619.729736,603.748840 619.230408,604.357178 618.452026,605.074951 
z"/>
<path fill="#0B6FAD" opacity="1.000000" stroke="none" 
	d="
M582.848511,428.440063 
	C582.715759,428.942932 582.314331,429.469177 581.662842,430.057678 
	C581.801758,429.567719 582.190796,429.015564 582.848511,428.440063 
z"/>
<path fill="#0B6FAD" opacity="1.000000" stroke="none" 
	d="
M587.853882,423.457428 
	C587.722412,423.956421 587.323853,424.477356 586.677856,425.060791 
	C586.815918,424.575317 587.201355,424.027344 587.853882,423.457428 
z"/>
<path fill="#0B6FAD" opacity="1.000000" stroke="none" 
	d="
M592.861389,418.492310 
	C592.718994,418.984772 592.309692,419.493988 591.652771,420.060516 
	C591.801636,419.581573 592.198120,419.045319 592.861389,418.492310 
z"/>
<path fill="#000202" opacity="1.000000" stroke="none" 
	d="
M516.961182,537.159912 
	C508.859772,529.836182 500.751190,522.520447 492.658966,515.186646 
	C484.433472,507.732056 476.208496,500.276855 468.011749,492.790802 
	C457.734314,483.404449 447.554840,473.909607 437.201752,464.607819 
	C429.699554,457.867401 421.984070,451.364380 414.363007,444.756287 
	C407.139130,438.492645 399.914337,432.230042 391.514923,424.948273 
	C390.678955,428.107758 389.473267,430.572479 389.458679,433.044281 
	C389.316956,457.043213 389.314697,481.043640 389.440643,505.042786 
	C389.459473,508.635468 388.508759,511.288147 385.898987,513.859375 
	C369.883820,529.638062 354.040955,545.591614 338.078491,561.424194 
	C336.986023,562.507751 335.387543,563.081238 334.024353,563.891968 
	C333.587280,562.266846 332.768860,560.642090 332.767700,559.016602 
	C332.702606,469.684143 332.706024,380.351593 332.702484,291.019073 
	C332.702393,288.877838 332.702454,286.736603 332.702454,283.167969 
	C336.044556,285.312836 338.662476,286.553436 340.741486,288.400635 
	C351.767517,298.197235 362.667297,308.136108 373.593750,318.044525 
	C391.655914,334.423828 409.688080,350.836243 427.764984,367.199219 
	C442.620331,380.646088 457.513580,394.051147 472.407318,407.455475 
	C479.658783,413.981750 486.934967,420.480713 494.225983,426.962738 
	C509.198669,440.274170 524.178162,453.578003 539.177124,466.859802 
	C545.361938,472.336487 551.529236,477.837067 557.838135,483.168610 
	C567.035706,490.941315 576.509644,498.393555 585.564331,506.326416 
	C591.319885,511.368805 596.547668,517.016052 601.977844,522.426514 
	C606.549011,526.981140 611.070618,531.585449 615.309814,536.513062 
	C613.184937,536.921326 611.364563,537.036499 609.544067,537.039368 
	C578.683105,537.087830 547.822144,537.122314 516.961182,537.159912 
z"/>
<path fill="#109EF6" opacity="1.000000" stroke="none" 
	d="
M517.054993,537.532471 
	C547.822144,537.122314 578.683105,537.087830 609.544067,537.039368 
	C611.364563,537.036499 613.184937,536.921326 615.466675,536.796387 
	C615.624939,540.929932 612.402405,539.975037 609.931885,539.980347 
	C586.156067,540.031311 562.380066,540.012146 538.604126,540.012207 
	C532.951111,540.012207 527.291809,540.154846 521.649231,539.911194 
	C520.123047,539.845337 518.647583,538.605896 517.054993,537.532471 
z"/>
<path fill="#11A3FE" opacity="1.000000" stroke="none" 
	d="
M329.972351,448.000000 
	C329.972290,393.717499 329.972290,339.934967 329.972290,286.152466 
	C330.185150,286.152283 330.398041,286.152069 330.610901,286.151855 
	C330.610901,378.112549 330.610901,470.073242 330.610901,562.033936 
	C330.398071,562.035217 330.185272,562.036499 329.972443,562.037720 
	C329.972443,524.191833 329.972443,486.345917 329.972351,448.000000 
z"/>
<path fill="#000000" opacity="1.000000" stroke="none" 
	d="
M1511.065430,417.417572 
	C1512.909912,407.249573 1514.752319,397.423309 1522.931885,390.745148 
	C1526.313965,387.983887 1530.330444,385.178131 1534.464600,384.295502 
	C1557.476074,379.382477 1574.682129,386.496368 1579.258301,412.155762 
	C1582.068970,427.915771 1582.253418,443.585815 1577.120239,458.939453 
	C1572.608032,472.435608 1560.938843,480.026489 1545.383911,479.998138 
	C1530.742554,479.971436 1519.640137,472.071442 1514.753052,458.862152 
	C1509.800049,445.475067 1511.214233,431.629211 1511.065430,417.417572 
z"/>
<path fill="#000000" opacity="1.000000" stroke="none" 
	d="
M1702.225952,429.377869 
	C1694.547485,433.565033 1686.587891,431.687958 1678.870483,431.752716 
	C1677.930054,431.760620 1676.133911,429.360535 1676.146484,428.090515 
	C1676.285645,414.151062 1676.640137,400.211914 1677.172974,386.281769 
	C1677.215332,385.174408 1679.087158,383.154205 1679.995972,383.216125 
	C1688.388306,383.787842 1696.828247,384.297607 1705.106079,385.699860 
	C1710.982788,386.695343 1714.574219,391.294067 1716.020508,396.890350 
	C1718.994995,408.400726 1716.710693,423.192230 1702.225952,429.377869 
z"/>
</svg>