<svg version="1.1" id="Layer_1" xmlns="http://www.w3.org/2000/svg" xmlns:xlink="http://www.w3.org/1999/xlink" x="0px" y="0px"
	 width="100%" viewBox="0 0 2187 860" enable-background="new 0 0 2187 860" xml:space="preserve">
<path fill="#000000" opacity="1.000000" stroke="none" 
	d="
M1507.000000,861.000000 
	C1004.666687,861.000000 502.833344,861.000000 1.000000,861.000000 
	C1.000000,574.333313 1.000000,287.666656 1.000000,1.000000 
	C730.000000,1.000000 1459.000000,1.000000 2188.000000,1.000000 
	C2188.000000,287.666656 2188.000000,574.333313 2188.000000,861.000000 
	C1961.166626,861.000000 1734.333374,861.000000 1507.000000,861.000000 
M538.620483,685.139221 
	C545.657104,677.673645 552.519836,670.033813 559.778320,662.790588 
	C567.331299,655.253540 575.411865,648.246155 582.986389,640.729675 
	C588.616943,635.142334 593.633118,628.937317 599.240662,623.324890 
	C605.841675,616.718140 612.980713,610.647034 619.545471,604.006592 
	C642.181030,581.109924 664.606018,558.005188 687.255615,535.122559 
	C692.842651,529.478027 699.208496,524.604980 704.802124,518.966431 
	C712.547302,511.159027 719.759888,502.824554 727.475037,494.985992 
	C731.992493,490.396332 737.287598,486.571686 741.800293,481.977905 
	C749.468506,474.172058 756.586426,465.821991 764.322876,458.088043 
	C772.290039,450.123596 780.613953,442.504120 788.997009,434.973267 
	C792.627930,431.711487 792.389771,429.455872 788.990784,426.078949 
	C756.481384,393.780396 724.084412,361.368439 691.760864,328.883759 
	C688.729736,325.837463 686.752625,325.659637 683.598877,328.779785 
	C653.901123,358.161041 624.046753,387.383942 594.284302,416.699982 
	C583.280823,427.538422 572.408386,438.509949 561.453552,449.397949 
	C560.471436,450.373993 559.322083,451.181671 557.043213,453.065582 
	C557.043213,449.362213 557.043213,447.102142 557.043213,444.842072 
	C557.043701,425.511200 557.127319,406.179626 556.970947,386.850037 
	C556.941406,383.200409 558.077759,380.611755 560.669556,378.101227 
	C581.216309,358.198364 601.638550,338.166992 622.136414,318.213531 
	C629.871582,310.683746 637.699280,303.248871 645.495789,295.782227 
	C652.158691,289.401337 652.179382,289.394867 645.659241,282.874023 
	C582.503479,219.711700 519.343140,156.553909 456.182526,93.396461 
	C451.003632,88.217842 450.994293,88.219910 445.636200,93.578018 
	C370.462463,168.752274 295.289062,243.926819 220.117203,319.102966 
	C184.414581,354.807648 148.746536,390.547150 112.954567,426.162048 
	C110.168999,428.933868 110.026283,430.450134 112.898621,433.292633 
	C135.048370,455.212189 157.021790,477.309875 179.056641,499.345520 
	C268.256592,588.548950 357.458801,677.750122 446.661133,766.951050 
	C450.892120,771.181885 452.188141,771.199341 456.468445,767.093933 
	C459.704315,763.990295 462.987000,760.932922 466.153717,757.760010 
	C490.146118,733.719727 514.115051,709.656067 538.620483,685.139221 
M1017.166931,493.725220 
	C1025.067139,494.325836 1032.967407,494.926483 1041.460083,495.572144 
	C1041.460083,451.241882 1041.460083,408.198029 1041.460083,365.033966 
	C1035.092651,366.138397 1028.621216,367.260895 1021.763672,368.450348 
	C1021.763672,399.924713 1021.763672,431.232727 1021.763672,463.156128 
	C1016.244263,454.372314 1011.095703,446.245667 1006.013428,438.077820 
	C991.652466,414.997864 977.333618,391.891571 962.929260,368.838806 
	C962.210266,367.688049 960.866821,366.171692 959.770386,366.135040 
	C952.532959,365.893097 945.283569,366.010071 938.500244,366.010071 
	C938.500244,409.354767 938.500244,451.973267 938.500244,494.794556 
	C944.787781,494.794556 951.192505,494.794556 957.499756,494.794556 
	C957.499756,463.222504 957.499756,431.834625 957.499756,399.822113 
	C977.419922,431.236908 997.033936,462.168854 1017.166931,493.725220 
M1577.917236,371.396851 
	C1562.999023,363.586914 1546.988525,363.287628 1531.131958,366.246796 
	C1516.776367,368.925903 1505.635254,377.051056 1497.839966,390.037323 
	C1490.607300,402.086060 1488.885498,415.289001 1488.211426,428.616180 
	C1487.637817,439.953552 1489.071777,451.331635 1492.959229,462.243439 
	C1498.816528,478.684448 1509.222778,490.654022 1526.772583,494.086060 
	C1536.194336,495.928528 1546.130859,496.295197 1555.728149,495.674652 
	C1562.058594,495.265350 1568.764404,492.897522 1574.320801,489.700775 
	C1593.094727,478.899658 1600.958252,461.045929 1602.792358,440.465637 
	C1603.665894,430.661804 1602.993896,420.584686 1601.851929,410.767426 
	C1599.957642,394.482391 1592.849121,380.901154 1577.917236,371.396851 
M1717.878174,368.353027 
	C1709.480225,365.261108 1700.727905,366.028656 1692.053589,366.007751 
	C1679.790527,365.978210 1667.527344,366.000275 1655.500122,366.000275 
	C1655.500122,409.244446 1655.500122,451.965912 1655.500122,494.767578 
	C1662.558228,494.767578 1669.634399,494.767578 1676.499756,494.767578 
	C1676.499756,479.409576 1676.499756,464.284546 1676.499756,449.090637 
	C1683.275879,449.090637 1689.917358,449.090637 1696.087036,449.090637 
	C1704.702881,463.946594 1713.091553,478.571136 1721.711182,493.058197 
	C1722.722656,494.758331 1725.133789,496.940918 1726.678345,496.782166 
	C1733.573120,496.073425 1740.388916,494.595947 1748.439941,493.184631 
	C1736.531616,475.732269 1725.619873,459.740234 1714.746582,443.804749 
	C1728.009399,435.722015 1736.877808,425.601105 1739.307373,410.404114 
	C1741.847656,394.515503 1736.795044,375.663055 1717.878174,368.353027 
M1301.995972,406.505920 
	C1310.613647,393.163971 1319.231323,379.822021 1328.111450,366.073853 
	C1319.644775,366.073853 1312.154419,366.073853 1305.816895,366.073853 
	C1295.472778,382.576050 1285.486694,398.506897 1275.176880,414.954376 
	C1264.742188,398.211365 1254.891479,382.405334 1244.904907,366.381439 
	C1237.145142,366.381439 1228.626465,366.381439 1219.652344,366.381439 
	C1233.049561,387.486084 1246.110840,408.124298 1259.277222,428.695190 
	C1260.459229,430.541870 1260.540527,431.608490 1259.228516,433.543243 
	C1250.008179,447.139587 1240.998901,460.879059 1231.926147,474.575378 
	C1227.537720,481.199829 1223.157715,487.829712 1218.513306,494.851227 
	C1226.808228,494.851227 1234.270142,494.851227 1240.667603,494.851227 
	C1251.799316,478.172363 1262.535034,462.086731 1273.411865,445.789673 
	C1274.765625,447.628662 1275.799561,448.881927 1276.670654,450.239532 
	C1285.797119,464.463776 1294.847168,478.737732 1304.099487,492.879425 
	C1304.853882,494.032562 1306.926025,494.864777 1308.412109,494.906403 
	C1315.736816,495.111542 1323.070435,494.999664 1330.550293,494.999664 
	C1330.339966,494.183319 1330.324951,493.342133 1329.938599,492.738525 
	C1316.657471,471.992767 1303.412476,451.222900 1289.931641,430.607269 
	C1288.401611,428.267517 1288.627197,426.921539 1289.971802,424.896271 
	C1293.887817,418.997803 1297.644287,412.993286 1301.995972,406.505920 
M1108.619385,366.000305 
	C1107.177856,366.000305 1105.736328,366.000305 1104.500122,366.000305 
	C1104.500122,409.217834 1104.500122,451.943115 1104.500122,494.781311 
	C1129.859375,494.781311 1155.256958,494.781311 1180.525024,494.781311 
	C1181.033691,490.354706 1181.501587,486.158173 1182.002075,481.965515 
	C1182.431396,478.368256 1180.361572,477.937073 1177.429077,477.959290 
	C1164.770142,478.055206 1152.110229,478.000305 1139.450562,478.000275 
	C1134.691406,478.000275 1129.932129,478.000275 1125.299805,478.000275 
	C1125.299805,464.323334 1125.299805,451.255188 1125.299805,437.999695 
	C1136.574097,437.999695 1147.549805,438.036713 1158.524780,437.977936 
	C1161.978271,437.959473 1166.114502,438.756744 1168.640625,437.145905 
	C1170.301392,436.086914 1169.639282,431.384430 1170.015869,428.313416 
	C1170.036011,428.149658 1170.023804,427.980164 1170.058105,427.820099 
	C1171.522095,421.002136 1171.522705,421.001038 1164.549683,421.000580 
	C1151.452881,420.999664 1138.355957,421.000305 1125.851318,421.000305 
	C1125.851318,408.008942 1125.851318,395.547607 1125.851318,382.717834 
	C1144.778931,382.717834 1162.856567,382.717834 1180.505859,382.717834 
	C1181.041626,379.057465 1181.809204,375.840271 1181.920776,372.600494 
	C1182.112183,367.036011 1182.880249,365.888641 1176.062500,365.939026 
	C1153.909302,366.102814 1131.754272,366.000305 1108.619385,366.000305 
M2053.297852,365.000275 
	C2041.195679,364.733948 2029.343994,364.734955 2018.446167,371.791779 
	C2006.740845,379.371521 2001.120239,390.093048 2001.193726,403.418365 
	C2001.257324,414.964783 2006.997192,424.176819 2017.204590,429.967072 
	C2027.554810,435.838348 2038.172119,441.236755 2048.591553,446.988647 
	C2058.532471,452.476257 2061.418945,460.332275 2057.053467,468.882904 
	C2052.928223,476.962982 2045.496460,479.687744 2037.420776,479.829926 
	C2025.918579,480.032379 2015.876587,475.206543 2006.790405,468.335846 
	C2005.557373,467.403595 2004.076172,466.799591 2002.710083,466.043610 
	C2001.807129,467.686127 2000.553833,469.235229 2000.085449,470.993500 
	C1999.421387,473.485870 1999.333740,476.132050 1999.003174,478.712952 
	C1997.704346,488.858429 1997.747192,488.733704 2007.485718,492.033173 
	C2017.380005,495.385376 2027.502930,496.275940 2037.880859,496.058044 
	C2052.718506,495.746490 2064.926514,490.441162 2074.023926,478.468445 
	C2081.354492,468.821136 2082.275879,450.470215 2075.547119,441.836151 
	C2070.618164,435.511505 2064.899902,430.579163 2057.802490,426.929443 
	C2048.507324,422.149597 2039.234619,417.277374 2030.302246,411.867188 
	C2027.318237,410.059784 2024.050659,406.817352 2023.257446,403.644653 
	C2020.635620,393.157654 2029.498901,383.435394 2040.440796,382.882385 
	C2050.220947,382.388184 2058.570557,385.412964 2066.371826,390.845734 
	C2070.888916,393.991180 2073.186768,392.930664 2074.019775,387.588867 
	C2074.859131,382.206696 2075.863281,376.850220 2076.990234,370.357971 
	C2069.443848,368.580414 2061.844482,366.790375 2053.297852,365.000275 
M1403.715698,384.003448 
	C1417.203613,384.002197 1430.691528,384.000671 1444.179443,383.999817 
	C1452.710449,383.999268 1452.703125,383.999451 1453.010132,375.163635 
	C1453.044312,374.183929 1453.111694,373.181702 1453.349487,372.236664 
	C1454.748047,366.674927 1454.243408,366.004364 1448.405884,366.002716 
	C1427.091675,365.996613 1405.777466,365.995758 1384.463257,366.010437 
	C1383.031494,366.011414 1381.599854,366.157471 1380.500122,366.217834 
	C1380.500122,409.317596 1380.500122,452.033203 1380.500122,494.741730 
	C1387.620483,494.741730 1394.698486,494.741730 1401.499756,494.741730 
	C1401.499756,476.693512 1401.499756,458.904022 1401.499756,440.999695 
	C1411.496216,440.999695 1421.313477,441.049744 1431.129761,440.973389 
	C1434.721436,440.945435 1438.891846,441.632019 1441.677612,440.036377 
	C1443.282593,439.117004 1442.532104,434.266785 1443.042969,431.219604 
	C1444.254517,423.992584 1444.303101,424.000641 1436.956665,424.000336 
	C1432.793701,424.000153 1428.630859,424.000275 1424.467896,424.000275 
	C1416.709717,424.000275 1408.951538,424.000275 1400.999878,424.000275 
	C1400.999878,417.608337 1400.777222,411.789825 1401.055908,405.995422 
	C1401.408081,398.671356 1402.168945,391.366974 1403.715698,384.003448 
M1820.000122,445.500000 
	C1820.000122,461.862396 1820.000122,478.224792 1820.000122,494.795654 
	C1826.458984,494.795654 1833.532959,494.795654 1840.373291,494.795654 
	C1839.969971,457.436432 1839.191040,420.251648 1841.158325,382.712830 
	C1852.775269,382.712830 1863.855225,382.712830 1874.481201,382.712830 
	C1875.022705,378.717834 1875.536987,375.164001 1875.978271,371.601105 
	C1876.432739,367.932434 1875.787964,365.837830 1871.063110,365.886810 
	C1847.246948,366.133820 1823.426880,366.000275 1799.608154,366.000275 
	C1794.810303,366.000275 1790.012573,366.000305 1784.865356,366.000305 
	C1784.554565,370.458557 1784.969604,374.730408 1783.810547,378.520782 
	C1782.387695,383.173676 1784.669800,383.028046 1787.787231,383.015411 
	C1798.066650,382.973694 1808.346436,382.999695 1820.000122,382.999695 
	C1820.000122,403.769135 1820.000122,424.134583 1820.000122,445.500000 
M1925.000122,458.493835 
	C1925.000122,470.529755 1925.000122,482.565674 1925.000122,494.801392 
	C1931.473755,494.801392 1938.550171,494.801392 1945.499878,494.801392 
	C1945.499878,451.869995 1945.499878,409.136108 1945.499878,366.201324 
	C1938.537598,366.201324 1931.467041,366.201324 1925.000122,366.201324 
	C1925.000122,396.764435 1925.000122,427.130127 1925.000122,458.493835 
z"/>
<path fill="#FDFDFD" opacity="1.000000" stroke="none" 
	d="
M538.355896,685.369446 
	C514.115051,709.656067 490.146118,733.719727 466.153717,757.760010 
	C462.987000,760.932922 459.704315,763.990295 456.468445,767.093933 
	C452.188141,771.199341 450.892120,771.181885 446.661133,766.951050 
	C357.458801,677.750122 268.256592,588.548950 179.056641,499.345520 
	C157.021790,477.309875 135.048370,455.212189 112.898621,433.292633 
	C110.026283,430.450134 110.168999,428.933868 112.954567,426.162048 
	C148.746536,390.547150 184.414581,354.807648 220.117203,319.102966 
	C295.289062,243.926819 370.462463,168.752274 445.636200,93.578018 
	C450.994293,88.219910 451.003632,88.217842 456.182526,93.396461 
	C519.343140,156.553909 582.503479,219.711700 645.659241,282.874023 
	C652.179382,289.394867 652.158691,289.401337 645.495789,295.782227 
	C637.699280,303.248871 629.871582,310.683746 622.136414,318.213531 
	C601.638550,338.166992 581.216309,358.198364 560.669556,378.101227 
	C558.077759,380.611755 556.941406,383.200409 556.970947,386.850037 
	C557.127319,406.179626 557.043701,425.511200 557.043213,444.842072 
	C557.043213,447.102142 557.043213,449.362213 557.043213,453.065582 
	C559.322083,451.181671 560.471436,450.373993 561.453552,449.397949 
	C572.408386,438.509949 583.280823,427.538422 594.284302,416.699982 
	C624.046753,387.383942 653.901123,358.161041 683.598877,328.779785 
	C686.752625,325.659637 688.729736,325.837463 691.760864,328.883759 
	C724.084412,361.368439 756.481384,393.780396 788.990784,426.078949 
	C792.389771,429.455872 792.627930,431.711487 788.997009,434.973267 
	C780.613953,442.504120 772.290039,450.123596 764.322876,458.088043 
	C756.586426,465.821991 749.468506,474.172058 741.800293,481.977905 
	C737.287598,486.571686 731.992493,490.396332 727.475037,494.985992 
	C719.759888,502.824554 712.547302,511.159027 704.802124,518.966431 
	C699.208496,524.604980 692.842651,529.478027 687.255615,535.122559 
	C664.606018,558.005188 642.181030,581.109924 619.545471,604.006592 
	C612.980713,610.647034 605.841675,616.718140 599.240662,623.324890 
	C593.633118,628.937317 588.616943,635.142334 582.986389,640.729675 
	C575.411865,648.246155 567.331299,655.253540 559.778320,662.790588 
	C552.519836,670.033813 545.657104,677.673645 538.355896,685.369446 
M332.764587,288.883423 
	C332.764587,380.486816 332.764587,472.090210 332.764587,563.693604 
	C333.343201,563.836487 333.921783,563.979370 334.500397,564.122314 
	C336.298035,562.496033 338.167542,560.941895 339.882111,559.232361 
	C355.080994,544.077881 370.184967,528.827271 385.492004,513.783081 
	C388.364319,510.960114 389.415039,508.061829 389.390839,504.111298 
	C389.245789,480.451721 389.279083,456.790558 389.389526,433.130585 
	C389.401672,430.527496 390.283844,427.928528 390.912018,424.515198 
	C392.927582,425.854309 393.949890,426.350769 394.744751,427.091339 
	C399.855896,431.853333 404.803009,436.796967 410.017334,441.441437 
	C423.234680,453.214355 436.565033,464.860474 449.849213,476.558380 
	C454.681671,480.813812 459.582520,484.994873 464.324951,489.348358 
	C470.329071,494.860138 476.049438,500.688507 482.168030,506.066437 
	C492.728271,515.348389 503.404175,524.506470 514.265747,533.431519 
	C516.476440,535.248047 519.715332,536.774536 522.491516,536.793518 
	C551.814941,536.994263 581.140564,536.866821 610.465637,536.807983 
	C611.889465,536.805176 613.312927,536.599365 615.914307,536.396118 
	C614.034973,534.397522 612.916077,533.062744 611.651306,531.884583 
	C595.898315,517.210876 580.421936,502.292786 563.473694,488.878265 
	C548.827209,477.285553 535.564453,463.949005 521.630005,451.450348 
	C514.359070,444.928619 506.938782,438.573547 499.621246,432.103333 
	C490.193787,423.767639 480.752106,415.446991 471.405823,407.020813 
	C457.011902,394.043854 442.664032,381.015381 428.351807,367.948273 
	C413.275726,354.183716 398.337982,340.266907 383.203674,326.566986 
	C368.714630,313.451172 354.077332,300.498413 339.426727,287.562897 
	C337.786194,286.114410 335.634491,285.244873 333.718689,284.106171 
	C333.269928,284.943176 333.025116,285.212921 332.985046,285.510315 
	C332.873993,286.333618 332.848297,287.168396 332.764587,288.883423 
z"/>
<path fill="#FFFFFF" opacity="1.000000" stroke="none" 
	d="
M1016.907410,493.413025 
	C997.033936,462.168854 977.419922,431.236908 957.499756,399.822113 
	C957.499756,431.834625 957.499756,463.222504 957.499756,494.794556 
	C951.192505,494.794556 944.787781,494.794556 938.500244,494.794556 
	C938.500244,451.973267 938.500244,409.354767 938.500244,366.010071 
	C945.283569,366.010071 952.532959,365.893097 959.770386,366.135040 
	C960.866821,366.171692 962.210266,367.688049 962.929260,368.838806 
	C977.333618,391.891571 991.652466,414.997864 1006.013428,438.077820 
	C1011.095703,446.245667 1016.244263,454.372314 1021.763672,463.156128 
	C1021.763672,431.232727 1021.763672,399.924713 1021.763672,368.450348 
	C1028.621216,367.260895 1035.092651,366.138397 1041.460083,365.033966 
	C1041.460083,408.198029 1041.460083,451.241882 1041.460083,495.572144 
	C1032.967407,494.926483 1025.067139,494.325836 1016.907410,493.413025 
z"/>
<path fill="#FFFFFF" opacity="1.000000" stroke="none" 
	d="
M1578.174316,371.676514 
	C1592.849121,380.901154 1599.957642,394.482391 1601.851929,410.767426 
	C1602.993896,420.584686 1603.665894,430.661804 1602.792358,440.465637 
	C1600.958252,461.045929 1593.094727,478.899658 1574.320801,489.700775 
	C1568.764404,492.897522 1562.058594,495.265350 1555.728149,495.674652 
	C1546.130859,496.295197 1536.194336,495.928528 1526.772583,494.086060 
	C1509.222778,490.654022 1498.816528,478.684448 1492.959229,462.243439 
	C1489.071777,451.331635 1487.637817,439.953552 1488.211426,428.616180 
	C1488.885498,415.289001 1490.607300,402.086060 1497.839966,390.037323 
	C1505.635254,377.051056 1516.776367,368.925903 1531.131958,366.246796 
	C1546.988525,363.287628 1562.999023,363.586914 1578.174316,371.676514 
M1513.001587,453.315704 
	C1516.489136,467.746460 1524.746948,477.444061 1540.032104,479.486755 
	C1550.490845,480.884399 1560.373047,479.312195 1568.663940,471.869049 
	C1578.175781,463.329803 1580.208740,451.718201 1580.763794,440.095795 
	C1581.238281,430.161438 1580.338257,420.024628 1578.803467,410.170898 
	C1577.367798,400.954529 1573.302124,392.589233 1564.819336,387.358887 
	C1556.071289,381.964935 1546.509644,382.353241 1536.850220,383.609558 
	C1528.505127,384.694885 1522.335693,389.418335 1518.070190,396.203064 
	C1508.555054,411.338531 1510.865112,428.305206 1511.466064,444.919128 
	C1511.557495,447.446472 1512.465820,449.944214 1513.001587,453.315704 
z"/>
<path fill="#FFFFFF" opacity="1.000000" stroke="none" 
	d="
M1718.163330,368.640564 
	C1736.795044,375.663055 1741.847656,394.515503 1739.307373,410.404114 
	C1736.877808,425.601105 1728.009399,435.722015 1714.746582,443.804749 
	C1725.619873,459.740234 1736.531616,475.732269 1748.439941,493.184631 
	C1740.388916,494.595947 1733.573120,496.073425 1726.678345,496.782166 
	C1725.133789,496.940918 1722.722656,494.758331 1721.711182,493.058197 
	C1713.091553,478.571136 1704.702881,463.946594 1696.087036,449.090637 
	C1689.917358,449.090637 1683.275879,449.090637 1676.499756,449.090637 
	C1676.499756,464.284546 1676.499756,479.409576 1676.499756,494.767578 
	C1669.634399,494.767578 1662.558228,494.767578 1655.500122,494.767578 
	C1655.500122,451.965912 1655.500122,409.244446 1655.500122,366.000275 
	C1667.527344,366.000275 1679.790527,365.978210 1692.053589,366.007751 
	C1700.727905,366.028656 1709.480225,365.261108 1718.163330,368.640564 
M1703.277588,384.995056 
	C1694.598877,384.105896 1685.920044,383.216736 1676.563965,382.258179 
	C1676.563965,399.659698 1676.563965,415.654755 1676.563965,432.000000 
	C1681.059204,432.000000 1685.681030,432.000031 1690.302979,432.000000 
	C1703.588989,431.999939 1713.369263,424.491669 1716.730835,411.711670 
	C1719.873291,399.764771 1715.035034,389.526764 1703.277588,384.995056 
z"/>
<path fill="#FFFFFF" opacity="1.000000" stroke="none" 
	d="
M1301.729614,406.768127 
	C1297.644287,412.993286 1293.887817,418.997803 1289.971802,424.896271 
	C1288.627197,426.921539 1288.401611,428.267517 1289.931641,430.607269 
	C1303.412476,451.222900 1316.657471,471.992767 1329.938599,492.738525 
	C1330.324951,493.342133 1330.339966,494.183319 1330.550293,494.999664 
	C1323.070435,494.999664 1315.736816,495.111542 1308.412109,494.906403 
	C1306.926025,494.864777 1304.853882,494.032562 1304.099487,492.879425 
	C1294.847168,478.737732 1285.797119,464.463776 1276.670654,450.239532 
	C1275.799561,448.881927 1274.765625,447.628662 1273.411865,445.789673 
	C1262.535034,462.086731 1251.799316,478.172363 1240.667603,494.851227 
	C1234.270142,494.851227 1226.808228,494.851227 1218.513306,494.851227 
	C1223.157715,487.829712 1227.537720,481.199829 1231.926147,474.575378 
	C1240.998901,460.879059 1250.008179,447.139587 1259.228516,433.543243 
	C1260.540527,431.608490 1260.459229,430.541870 1259.277222,428.695190 
	C1246.110840,408.124298 1233.049561,387.486084 1219.652344,366.381439 
	C1228.626465,366.381439 1237.145142,366.381439 1244.904907,366.381439 
	C1254.891479,382.405334 1264.742188,398.211365 1275.176880,414.954376 
	C1285.486694,398.506897 1295.472778,382.576050 1305.816895,366.073853 
	C1312.154419,366.073853 1319.644775,366.073853 1328.111450,366.073853 
	C1319.231323,379.822021 1310.613647,393.163971 1301.729614,406.768127 
z"/>
<path fill="#FFFFFF" opacity="1.000000" stroke="none" 
	d="
M1109.109619,366.000305 
	C1131.754272,366.000305 1153.909302,366.102814 1176.062500,365.939026 
	C1182.880249,365.888641 1182.112183,367.036011 1181.920776,372.600494 
	C1181.809204,375.840271 1181.041626,379.057465 1180.505859,382.717834 
	C1162.856567,382.717834 1144.778931,382.717834 1125.851318,382.717834 
	C1125.851318,395.547607 1125.851318,408.008942 1125.851318,421.000305 
	C1138.355957,421.000305 1151.452881,420.999664 1164.549683,421.000580 
	C1171.522705,421.001038 1171.522095,421.002136 1170.058105,427.820099 
	C1170.023804,427.980164 1170.036011,428.149658 1170.015869,428.313416 
	C1169.639282,431.384430 1170.301392,436.086914 1168.640625,437.145905 
	C1166.114502,438.756744 1161.978271,437.959473 1158.524780,437.977936 
	C1147.549805,438.036713 1136.574097,437.999695 1125.299805,437.999695 
	C1125.299805,451.255188 1125.299805,464.323334 1125.299805,478.000275 
	C1129.932129,478.000275 1134.691406,478.000275 1139.450562,478.000275 
	C1152.110229,478.000305 1164.770142,478.055206 1177.429077,477.959290 
	C1180.361572,477.937073 1182.431396,478.368256 1182.002075,481.965515 
	C1181.501587,486.158173 1181.033691,490.354706 1180.525024,494.781311 
	C1155.256958,494.781311 1129.859375,494.781311 1104.500122,494.781311 
	C1104.500122,451.943115 1104.500122,409.217834 1104.500122,366.000305 
	C1105.736328,366.000305 1107.177856,366.000305 1109.109619,366.000305 
z"/>
<path fill="#FFFFFF" opacity="1.000000" stroke="none" 
	d="
M2053.771484,365.000305 
	C2061.844482,366.790375 2069.443848,368.580414 2076.990234,370.357971 
	C2075.863281,376.850220 2074.859131,382.206696 2074.019775,387.588867 
	C2073.186768,392.930664 2070.888916,393.991180 2066.371826,390.845734 
	C2058.570557,385.412964 2050.220947,382.388184 2040.440796,382.882385 
	C2029.498901,383.435394 2020.635620,393.157654 2023.257446,403.644653 
	C2024.050659,406.817352 2027.318237,410.059784 2030.302246,411.867188 
	C2039.234619,417.277374 2048.507324,422.149597 2057.802490,426.929443 
	C2064.899902,430.579163 2070.618164,435.511505 2075.547119,441.836151 
	C2082.275879,450.470215 2081.354492,468.821136 2074.023926,478.468445 
	C2064.926514,490.441162 2052.718506,495.746490 2037.880859,496.058044 
	C2027.502930,496.275940 2017.380005,495.385376 2007.485718,492.033173 
	C1997.747192,488.733704 1997.704346,488.858429 1999.003174,478.712952 
	C1999.333740,476.132050 1999.421387,473.485870 2000.085449,470.993500 
	C2000.553833,469.235229 2001.807129,467.686127 2002.709961,466.043579 
	C2004.076172,466.799591 2005.557373,467.403595 2006.790405,468.335846 
	C2015.876587,475.206543 2025.918579,480.032379 2037.420776,479.829926 
	C2045.496460,479.687744 2052.928223,476.962982 2057.053467,468.882904 
	C2061.418945,460.332275 2058.532471,452.476257 2048.591553,446.988647 
	C2038.172119,441.236755 2027.554810,435.838348 2017.204590,429.967072 
	C2006.997192,424.176819 2001.257324,414.964783 2001.193726,403.418365 
	C2001.120239,390.093048 2006.740845,379.371521 2018.446167,371.791779 
	C2029.343994,364.734955 2041.195679,364.733948 2053.771484,365.000305 
z"/>
<path fill="#FFFFFF" opacity="1.000000" stroke="none" 
	d="
M1403.234619,384.028748 
	C1402.168945,391.366974 1401.408081,398.671356 1401.055908,405.995422 
	C1400.777222,411.789825 1400.999878,417.608337 1400.999878,424.000275 
	C1408.951538,424.000275 1416.709717,424.000275 1424.467896,424.000275 
	C1428.630859,424.000275 1432.793701,424.000153 1436.956665,424.000336 
	C1444.303101,424.000641 1444.254517,423.992584 1443.042969,431.219604 
	C1442.532104,434.266785 1443.282593,439.117004 1441.677612,440.036377 
	C1438.891846,441.632019 1434.721436,440.945435 1431.129761,440.973389 
	C1421.313477,441.049744 1411.496216,440.999695 1401.499756,440.999695 
	C1401.499756,458.904022 1401.499756,476.693512 1401.499756,494.741730 
	C1394.698486,494.741730 1387.620483,494.741730 1380.500122,494.741730 
	C1380.500122,452.033203 1380.500122,409.317596 1380.500122,366.217834 
	C1381.599854,366.157471 1383.031494,366.011414 1384.463257,366.010437 
	C1405.777466,365.995758 1427.091675,365.996613 1448.405884,366.002716 
	C1454.243408,366.004364 1454.748047,366.674927 1453.349487,372.236664 
	C1453.111694,373.181702 1453.044312,374.183929 1453.010132,375.163635 
	C1452.703125,383.999451 1452.710449,383.999268 1444.179443,383.999817 
	C1430.691528,384.000671 1417.203613,384.002197 1403.234619,384.028748 
z"/>
<path fill="#FFFFFF" opacity="1.000000" stroke="none" 
	d="
M1820.000122,445.000000 
	C1820.000122,424.134583 1820.000122,403.769135 1820.000122,382.999695 
	C1808.346436,382.999695 1798.066650,382.973694 1787.787231,383.015411 
	C1784.669800,383.028046 1782.387695,383.173676 1783.810547,378.520782 
	C1784.969604,374.730408 1784.554565,370.458557 1784.865356,366.000305 
	C1790.012573,366.000305 1794.810303,366.000275 1799.608154,366.000275 
	C1823.426880,366.000275 1847.246948,366.133820 1871.063110,365.886810 
	C1875.787964,365.837830 1876.432739,367.932434 1875.978271,371.601105 
	C1875.536987,375.164001 1875.022705,378.717834 1874.481201,382.712830 
	C1863.855225,382.712830 1852.775269,382.712830 1841.158325,382.712830 
	C1839.191040,420.251648 1839.969971,457.436432 1840.373291,494.795654 
	C1833.532959,494.795654 1826.458984,494.795654 1820.000122,494.795654 
	C1820.000122,478.224792 1820.000122,461.862396 1820.000122,445.000000 
z"/>
<path fill="#FFFFFF" opacity="1.000000" stroke="none" 
	d="
M1925.000122,457.994812 
	C1925.000122,427.130127 1925.000122,396.764435 1925.000122,366.201324 
	C1931.467041,366.201324 1938.537598,366.201324 1945.499878,366.201324 
	C1945.499878,409.136108 1945.499878,451.869995 1945.499878,494.801392 
	C1938.550171,494.801392 1931.473755,494.801392 1925.000122,494.801392 
	C1925.000122,482.565674 1925.000122,470.529755 1925.000122,457.994812 
z"/>
<path fill="#040404" opacity="1.000000" stroke="none" 
	d="
M332.776733,288.441040 
	C332.848297,287.168396 332.873993,286.333618 332.985046,285.510315 
	C333.025116,285.212921 333.269928,284.943176 333.718689,284.106171 
	C335.634491,285.244873 337.786194,286.114410 339.426727,287.562897 
	C354.077332,300.498413 368.714630,313.451172 383.203674,326.566986 
	C398.337982,340.266907 413.275726,354.183716 428.351807,367.948273 
	C442.664032,381.015381 457.011902,394.043854 471.405823,407.020813 
	C480.752106,415.446991 490.193787,423.767639 499.621246,432.103333 
	C506.938782,438.573547 514.359070,444.928619 521.630005,451.450348 
	C535.564453,463.949005 548.827209,477.285553 563.473694,488.878265 
	C580.421936,502.292786 595.898315,517.210876 611.651306,531.884583 
	C612.916077,533.062744 614.034973,534.397522 615.914307,536.396118 
	C613.312927,536.599365 611.889465,536.805176 610.465637,536.807983 
	C581.140564,536.866821 551.814941,536.994263 522.491516,536.793518 
	C519.715332,536.774536 516.476440,535.248047 514.265747,533.431519 
	C503.404175,524.506470 492.728271,515.348389 482.168030,506.066437 
	C476.049438,500.688507 470.329071,494.860138 464.324951,489.348358 
	C459.582520,484.994873 454.681671,480.813812 449.849213,476.558380 
	C436.565033,464.860474 423.234680,453.214355 410.017334,441.441437 
	C404.803009,436.796967 399.855896,431.853333 394.744751,427.091339 
	C393.949890,426.350769 392.927582,425.854309 390.912018,424.515198 
	C390.283844,427.928528 389.401672,430.527496 389.389526,433.130585 
	C389.279083,456.790558 389.245789,480.451721 389.390839,504.111298 
	C389.415039,508.061829 388.364319,510.960114 385.492004,513.783081 
	C370.184967,528.827271 355.080994,544.077881 339.882111,559.232361 
	C338.167542,560.941895 336.298035,562.496033 334.500397,564.122314 
	C333.921783,563.979370 333.343201,563.836487 332.764587,563.693604 
	C332.764587,472.090210 332.764587,380.486816 332.776733,288.441040 
z"/>
<path fill="#000000" opacity="1.000000" stroke="none" 
	d="
M1512.999023,452.885681 
	C1512.465820,449.944214 1511.557495,447.446472 1511.466064,444.919128 
	C1510.865112,428.305206 1508.555054,411.338531 1518.070190,396.203064 
	C1522.335693,389.418335 1528.505127,384.694885 1536.850220,383.609558 
	C1546.509644,382.353241 1556.071289,381.964935 1564.819336,387.358887 
	C1573.302124,392.589233 1577.367798,400.954529 1578.803467,410.170898 
	C1580.338257,420.024628 1581.238281,430.161438 1580.763794,440.095795 
	C1580.208740,451.718201 1578.175781,463.329803 1568.663940,471.869049 
	C1560.373047,479.312195 1550.490845,480.884399 1540.032104,479.486755 
	C1524.746948,477.444061 1516.489136,467.746460 1512.999023,452.885681 
z"/>
<path fill="#000000" opacity="1.000000" stroke="none" 
	d="
M1703.697632,385.008820 
	C1715.035034,389.526764 1719.873291,399.764771 1716.730835,411.711670 
	C1713.369263,424.491669 1703.588989,431.999939 1690.302979,432.000000 
	C1685.681030,432.000031 1681.059204,432.000000 1676.563965,432.000000 
	C1676.563965,415.654755 1676.563965,399.659698 1676.563965,382.258179 
	C1685.920044,383.216736 1694.598877,384.105896 1703.697632,385.008820 
z"/>
</svg>